/* XPM */
static char *_6c4442e5a6a4b02e1911b09fbea9597KcGefnNnj1XSSalX[] = {
/* columns rows colors chars-per-pixel */
"64 64 193 2 ",
"   c #030303",
".  c #0A0405",
"X  c #060906",
"o  c #090B07",
"O  c #060608",
"+  c #0C0608",
"@  c #0B0D0A",
"#  c #120506",
"$  c #1A0607",
"%  c #140608",
"&  c #190709",
"*  c #160808",
"=  c #1A080B",
"-  c #0E130D",
";  c #10160E",
":  c #121B0E",
">  c #0E0E11",
",  c #131313",
"<  c #141C11",
"1  c #1A1A1B",
"2  c #230709",
"3  c #260A0C",
"4  c #2B0C0E",
"5  c #350C0F",
"6  c #260E12",
"7  c #330F12",
"8  c #3D0D11",
"9  c #2C1012",
"0  c #301114",
"q  c #3C1216",
"w  c #192316",
"e  c #1A2317",
"r  c #1B2916",
"t  c #1E2A1A",
"y  c #222E1C",
"u  c #33281C",
"i  c #22321C",
"p  c #1F1F20",
"a  c #232424",
"s  c #272B26",
"d  c #283621",
"f  c #2D3D25",
"g  c #30302F",
"h  c #2F2F30",
"j  c #333234",
"k  c #3C3C3C",
"l  c #47161B",
"z  c #5A1419",
"x  c #62141A",
"c  c #79191F",
"v  c #611C23",
"b  c #6B2227",
"n  c #6D2229",
"m  c #79252C",
"M  c #2E4526",
"N  c #31452A",
"B  c #334B28",
"V  c #334B2B",
"C  c #355229",
"Z  c #394D32",
"A  c #3D5433",
"S  c #3E5B31",
"D  c #445F3B",
"F  c #47673A",
"G  c #4F7E3E",
"H  c #424242",
"J  c #4D4E4D",
"K  c #545455",
"L  c #5B5B5B",
"P  c #4D6B40",
"I  c #4E7043",
"U  c #557847",
"Y  c #636363",
"T  c #696969",
"R  c #757474",
"E  c #7E7E7E",
"W  c #841A21",
"Q  c #8B1B23",
"!  c #9F1E29",
"~  c #A51F28",
"^  c #842831",
"/  c #8E2A34",
"(  c #902C33",
")  c #982E37",
"_  c #9A2E38",
"`  c #A9262B",
"'  c #B3222C",
"]  c #B9232D",
"[  c #BD2332",
"{  c #A7313D",
"}  c #A9333E",
"|  c #CB2532",
" . c #D42733",
".. c #E32A36",
"X. c #EB2A37",
"o. c #E92A39",
"O. c #F82A37",
"+. c #F62C3A",
"@. c #FA2B3A",
"#. c #FA313D",
"$. c #BD3743",
"%. c #BD3943",
"&. c #C33944",
"*. c #C93946",
"=. c #D33E4B",
"-. c #DB3F4F",
";. c #FA3342",
":. c #F43947",
">. c #FA3845",
",. c #FC3C4A",
"<. c #807F7F",
"1. c #D8404B",
"2. c #DD4050",
"3. c #E6424F",
"4. c #FC424F",
"5. c #E54351",
"6. c #EB4452",
"7. c #F44654",
"8. c #FE4755",
"9. c #F94857",
"0. c #FC4855",
"q. c #FC4758",
"w. c #F65160",
"e. c #558542",
"r. c #5A8749",
"t. c #5E9547",
"y. c #639B4C",
"u. c #628951",
"i. c #679156",
"p. c #6A9557",
"a. c #6B9659",
"s. c #6D9A5A",
"d. c #719E5D",
"f. c #67A34F",
"g. c #6CAA54",
"h. c #71A35A",
"j. c #6EB054",
"k. c #72B457",
"l. c #76BB5A",
"z. c #77A862",
"x. c #7AAB64",
"c. c #7CB266",
"v. c #7FB269",
"b. c #7BC45D",
"n. c #7ECA5B",
"m. c #7FCA61",
"M. c #80807F",
"N. c #83B96D",
"B. c #83BA70",
"V. c #B1BD74",
"C. c #81D25F",
"Z. c #81CF61",
"A. c #83D362",
"S. c #88D367",
"D. c #8BD66C",
"F. c #8BC672",
"G. c #8DCB74",
"H. c #8FCF78",
"J. c #90C172",
"K. c #91CF76",
"L. c #8ED770",
"P. c #91D672",
"I. c #92D975",
"U. c #94D579",
"Y. c #96DA7B",
"T. c #98DB7C",
"R. c #7F7F80",
"E. c #817F81",
"W. c #987F80",
"Q. c #7F8080",
"!. c #828282",
"~. c #8B8B8B",
"^. c #8F908F",
"/. c #949394",
"(. c #9DB095",
"). c #A6A6A6",
"_. c #ACACAC",
"`. c #AFB1AF",
"'. c #B2B2B2",
"]. c #9ADB80",
"[. c #C5C5C5",
"{. c #CCCCCB",
"}. c #CFCFD0",
"|. c #D7D7D7",
" X c #ECC9C9",
".X c #E3E3E3",
"XX c #EBEBEB",
"oX c #EFF8EE",
"OX c #F4F3F3",
"+X c #F7F8F6",
"@X c #F8F8F8",
"#X c #FCFDFC",
"$X c white",
/* pixels */
"$X$X$X$X$X$X$X$X$X$X$X$X$X$X$X$X$X$X$X$X$X$X$X$X$X$X$X$X$X$X$X$X$X$X$X$X$X$X$X$X$X$X$X$X$X$X$X$X$X$X@X!., _.$X$X$X$X$X$X$X$X$X$X",
"$X$X$X$X$X$X$X$X$X$X$X$X$X$X$X$X$X$X$X$X$X$X$X$X$X$X$X$X$X$X$X$X$X$X$X$X$X$X$X$X$X$X$X$X$X$X$X$X$X$XE     , '.$X$X$X$X$X$X$X$X$X",
"$X$X$X$X$X$X$X$X$X$X$X$X$X$X$X$X$X$X$X$X$X$X$X$X$X$X$X$X$X$X$X$X$X$X$X$X$X$X$X$X$X$X$X$X$X$X$X$X$X!.  o D   , {.$X$X$X$X$X$X$X$X",
"$X$X$X$X$X$X$X$X$X$X$X$X$X$X$X$X$X$X$X$X$X$X$X$X$X$X$X$X$X$X$X$X$X$X$X$X$X$X$X$X$X$X$X$X$X$X$X+XR.  ; z.T.P   h .X$X$X$X$X$X$X$X",
"$X$X$X$X$X$X$X$X$X$X$X$X$X$X$X$X$X$X$X$X$X$X$X$X$X$X$X$X$X$X$X$X$X$X$X$X$X$X$X$X$X$X$X$X$X$X$X!.O - z.Y.T.Y.A   J $X$X$X$X$X$X$X",
"$X$X$X$X$X$X$X$X$X$X$X$X$X$X$X$X$X$X$X$X$X$X$X$X$X$X$X$X$X$X$X$X$X$X$X$X$X$X$X$X$X$X$X$X$X$X!.    s K.T.T.T.H.t   /.$X$X$X$X$X$X",
"$X$X$X$X$X$X$X$X$X$X$X$X$X$X$X$X$X$X$X$X$X$X$X$X$X$X$X$X$X$X$X$X$X$X$X$X$X$X$X$X$X$X$X$X$X!.  = 7   Z U.Y.Y.T.z.X 1 |.$X$X$X$X$X",
"$X$X$X$X$X$X$X$X$X$X$X$X$X$X$X$X$X$X$X$X$X$X$X$X$X$X$X$X$X$X$X$X$X$X$X$X$X$X$X$X$X$X$X$X!.  % %.5.6   U T.T.Y.T.P   K $X$X$X$X$X",
"$X$X$X$X$X$X$X$X$X$X$X$X$X$X$X$X$X$X$X$X$X$X$X$X$X$X$X$X$X$X$X$X$X$X$X$X$X$X$X$X$X$X$X<.  = %.0.8.=.=   h.T.Y.Y.U.t   '.$X$X$X$X",
"$X$X$X$X$X$X$X$X$X$X$X$X$X$X$X$X$X$X$X$X$X$X$X$X$X$X$X$X$X$X$X$X$X$X$X$X$X$X$X$X$X$X!.  % %.0.8.0.8._   w G.Y.Y.T.a.  j +X$X$X$X",
"$X$X$X$X$X$X$X$X$X$X$X$X$X$X$X$X$X$X$X$X$X$X$X$X$X$X$X$X$X$X$X$X$X$X$X$X$X$X$X$X+X!.  & %.0.8.8.8.8.7.z   F T.Y.T.U.d   ).$X$X$X",
"$X$X$X$X$X$X$X$X$X$X$X$X$X$X$X$X$X$X$X$X$X$X$X$X$X$X$X$X$X$X$X$X$X$X$X$X$X$X$X$XQ.O * %.0.8.8.8.8.8.8.5.= X B.T.Y.T.s.  H $X$X$X",
"$X$X$X$X$X$X$X$X$X$X$X$X$X$X$X$X$X$X$X$X$X$X$X$X$X$X$X$X$X$X$X$X$X$X$X$X$X$X$X!.  # &.0.8.0.8.8.8.8.8.8./   N Y.T.Y.].t   {.$X$X",
"$X$X$X$X$X$X$X$X$X$X$X$X$X$X$X$X$X$X$X$X$X$X$X$X$X$X$X$X$X$X$X$X$X$X$X$X$X$XM.  = %.0.8.8.8.8.8.8.8.8.8.6.3 o c.T.Y.Y.u.  Y $X$X",
"$X$X$X$X$X$X$X$X$X$X$X$X$X$X$X$X$X$X$X$X$X$X$X$X$X$X$X$X$X$X$X$X$X$X$X$X$X!.  # %.9.8.8.8.8.8.8.8.8.8.0.8.^   D Y.T.Y.F.- , XX$X",
"$X$X$X$X$X$X$X$X$X$X$X$X$X$X$X$X$X$X$X$X$X$X$X$X$X$X$X$X$X$X$X$X$X$X$X+X!.  = $.0.8.0.8.8.8.8.8.8.8.8.8.8.5.# : K.T.Y.Y.V   _.$X",
"$X$X$X$X$X$X$X$X$X$X$X$X$X$X$X$X$X$X$X$X$X$X$X$X$X$X$X$X$X$X$X$X$X$X$X<.  & %.0.0.8.0.0.8.8.8.8.8.8.8.8.8.8.v   a.Y.Y.T.u.  T $X",
"$X$X$X$X$X$X$X$X$X$X$X$X$X$X$X$X$X$X$X$X$X$X$X$X$X$X$X$X$X$X$X$X$X$X{.  % %.9.0.0.6.n 7 ) 8.8.8.8.8.8.8.8.8.%.  N T.Y.Y.B.o g OX",
"$X$X$X$X$X$X$X$X$X$X$X$X$X$X$X$X$X$X$X$X$X$X$X$X$X$X$X$X$X$X$X$X$X$X Xm &.0.8.8.6.q     + =.8.8.8.8.8.8.8.8.6.= @ U.Y.T.T.w , |.",
"$X$X$X$X$X$X$X$X$X$X$X$X$X$X$X$X$X$X$X$X$X$X$X$X$X$X$X$X$X$X$X$X/.W.w.8.8.0.8.8.&..     + 1.8.8.8.8.8.8.8.8.0.l   z.Y.T.T.Z   '.",
"$X$X$X$X$X$X$X$X$X$X$X$X$X$X$X$X$X$X$X$X$X$X$X$X$X$X$X$X$X$X+XE   7 7.8.8.8.8.8.7.n 7 l } 0.8.8.8.8.8.8.8.8.8.^   U Y.T.Y.r.  ~.",
"$X$X$X$X$X$X$X$X$X$X$X$X$X$X$X$X$X$X$X$X$X$X$X$X$X$X$X$X$X$X!.O $ %.0.8.8.8.8.8.0.0.7.0.0.0.8.8.8.8.8.8.8.8.8.}   A T.T.Y.x.  Y ",
"$X$X$X$X$X$X$X$X$X$X$X$X$X$X$X$X$X$X$X$X$X$X$X$X$X$X$X$X$X!.  % %.0.8.8.8.8.8.8.8.q.8.8.8.8.8.8.8.8.8.8.8.8.8.=.O d Y.Y.Y.F.  H ",
"$X$X$X$X$X$X$X$X$X$X$X$X$X$X$X$X$X$X$X$X$X$X$X$X$X$X$X$X<.  = %.8.8.8.8.8.8.8.8.8.8.8.8.8.8.8.8.8.8.8.8.8.8.8.3.+ w U.Y.Y.U.o s ",
"$X$X$X$X$X$X$X$X$X$X$X$X$X$X$X$X$X$X$X$X$X$X$X$X$X$X$X!.  # %.9.8.8.8.8.8.8.8.8.8.8.8.8.8.8.8.8.8.8.8.8.8.8.8.7.& < G.T.Y.U.< , ",
"$X$X$X$X$X$X$X$X$X$X$X$X$X$X$X$X$X$X$X$X$X$X$X$X$X+XQ.  = &.0.8.8.8.8.8.8.8.8.8.8.8.8.8.8.8.8.8.8.8.8.8.8.0.8.0.3 ; G.Y.T.Y.w X ",
"$X$X$X$X$X$X$X$X$X$X$X$X$X$X$X$X$X$X$X$X$X$X$X$X$X!.  % %.8.8.8.8.8.8.8.8.8.8.8.0.0.7.0.0.8.8.8.8.8.8.8.8.8.8.0.3 - F.Y.T.T.w   ",
"$X$X$X$X$X$X$X$X$X$X$X$X$X$X$X$X$X$X$X$X$X$X$X$X!.  % %.q.0.8.8.8.8.8.8.8.8.8.8.} 4   7 2.8.8.8.8.8.8.8.8.8.8.0.3 - F.Y.T.Y.w   ",
"$X$X$X$X$X$X$X$X$X$X$X$X$X$X$X$X$X$X$X$X$X$X$XE O = %.0.8.8.8.8.8.8.8.8.8.8.8.7.0       n 8.8.8.8.8.8.8.8.8.8.7.= < G.Y.Y.Y.< @ ",
"$X$X$X$X$X$X$X$X$X$X$X$X$X$X$X$X$X$X$X$X$X$X!.  % %.8.0.8.8.8.8.8.8.8.8.8.8.8.8./ O     ) 8.8.8.8.8.8.8.8.8.0.6.# w U.Y.T.U.- 1 ",
"$X$X$X$X$X$X$X$X$X$X$X$X$X$X$X$X$X$X$X$X+XE.  & %.8.8.8.8.8.8.8.8.8.8.8.8.8.8.8.0.*.m _ 0.8.8.8.8.8.8.8.8.8.8.1.+ y U.T.Y.G.  k ",
"$X$X$X$X$X$X$X$X$X$X$X$X$X$X$X$X$X$X$X$XE.O # %.0.8.8.8.8.8.8.8.8.8.8.8.8.8.8.8.8.8.8.8.8.8.8.8.8.8.8.8.8.8.8.$.  V T.T.Y.N.  K ",
"$X$X$X$X$X$X$X$X$X$X$X$X$X$X$X$X$X$X$X!.  * %.0.8.8.8.8.8.8.8.8.8.8.8.8.8.8.8.8.8.0.0.0.8.8.8.8.8.8.8.8.8.0.8.(   F T.Y.Y.i.  E ",
"$X$X$X$X$X$X$X$X$X$X$X$X$X$X$X$X$X$XQ.  = %.0.8.8.8.8.8.8.8.8.8.8.8.8.8.8.8.8.8.8.8.8.8.8.8.8.8.8.8.8.8.8.8.0.v   p.T.Y.T.F   ).",
"$X$X$X$X$X$X$X$X$X$X$X$X$X$X$X$X$X!.  # %.0.8.8.8.8.8.8.8.8.8.8.8.8.8.8.0.8.8.8.8.8.8.8.8.8.8.8.8.8.8.8.8.8.7.4   F.Y.T.T.i   }.",
"$X$X$X$X$X$X$X$X$X$X$X$X$X$X$X+XE   = &.0.8.8.8.8.8.8.8.8.8.8.8.8.8.0.=.b / 5.8.8.8.8.8.8.8.8.8.8.8.8.8.8.8.*.. y T.Y.T.G.o s XX",
"$X$X$X$X$X$X$X$X$X$X$X$X$X$X$X!.  % %.0.8.8.8.8.8.8.8.8.8.8.8.8.8.8.8.b     9 5.8.8.8.8.8.8.8.8.8.8.8.8.8.8.W   U T.T.Y.c.o K $X",
"$X$X$X$X$X$X$X$X$X$X$X$X$X@X!.  % %.9.0.8.8.8.8.8.8.8.8.8.8.8.8.8.8.8./       ) 8.8.8.8.8.8.8.8.8.8.8.8.0.:.2 X F.Y.Y.Y.A.(..X$X",
"$X$X$X$X$X$X$X$X$X$X$X$X$XE   % %.8.8.0.8.8.8.8.8.8.8.8.8.8.8.8.8.8.8.5.9   + *.8.8.8.8.8.8.8.8.8.8.8.8.8.`   M Y.T.Y.I.S.oX$X$X",
"$X$X$X$X$X$X$X$X$X$X$X$X!.  % %.8.0.8.8.8.8.8.8.8.8.8.8.7.8.8.8.8.8.8.0.5.) *.8.8.8.8.8.8.8.8.8.8.8.8.8.:.8   a.T.Y.Y.g.- `.$X$X",
"$X$X$X$X$X$X$X$X$X$X+XE   & %.8.8.8.6.&.7.8.0.8.8.8.8.} 0 / 8.8.8.8.8.8.8.8.8.8.8.8.8.8.8.8.8.8.8.8.8.,.' . t U.T.T.I.M   _.$X$X",
"$X$X$X$X$X$X$X$X$X$X!.O # %.0.8.0.6.q . n 8.q.8.8.8.0.4   . *.8.8.8.8.8.8.8.8.8.8.8.8.8.8.8.8.8.8.8.8.@.5   p.Y.T.Y.k.  s OX$X$X",
"$X$X$X$X$X$X$X$X$X!.  * $.0.8.8.0.m     q 7.8.8.8.8.7.      m 8.0.8.8.8.8.8.8.8.8.8.8.8.8.8.8.8.8.8.;.Q   f T.T.Y.L.C   !.$X$X$X",
"$X$X$X$X$X$X$X$X!.  = %.0.8.8.8.0.7     l 0.8.8.8.8.0.7     _ 8.8.8.8.8.8.8.8.8.8.8.8.8.8.8.8.0.8.;.| $ @ c.Y.Y.Y.j.o 1 .X$X$X$X",
"$X$X$X$X$X$X$X!.  % %.0.8.8.8.8.8.) + % { 0.0.8.8.8.8.-.n ) 0.8.8.8.8.8.8.8.8.8.8.8.8.8.8.8.8.8.;.o.8   I T.T.T.S.N   !.$X$X$X$X",
"$X$X$X$X$X$XE   = %.0.8.8.8.8.8.8.0.=.1.0.8.8.8.8.8.8.8.q.0.8.8.8.8.8.8.8.8.8.8.8.8.8.8.8.8.8.>.+.x   f U.Y.Y.D.y.  s OX$X$X$X$X",
"$X$X$X$X$X!.  # %.9.8.8.8.8.8.8.8.8.8.8.8.8.8.8.8.8.8.8.8.8.8.8.8.8.8.8.8.8.8.8.8.8.8.8.8.8.;.O.c   < F.Y.Y.P.b.<   '.$X$X$X$X$X",
"$X$X$X+X!.  $ [ ,.8.8.8.8.8.8.8.8.8.8.8.8.8.8.8.8.8.8.8.8.8.8.8.8.8.8.8.8.8.8.8.8.8.8.8.8.;.+.Q . - x.Y.T.I.C.C   L $X$X$X$X$X$X",
"$X$X$XE     5 ..O.;.8.0.8.8.8.8.8.8.8.8.8.8.8.8.8.8.8.8.8.8.8.8.8.8.8.8.8.8.8.8.8.8.8.,.@.+.c . - z.T.T.I.A.e.  p .X$X$X$X$X$X$X",
"$X$X!.  - s   3 | O.@.,.8.8.8.8.8.8.8.8.8.8.8.8.8.8.8.8.8.8.8.8.8.8.8.8.8.8.8.8.8.4.;.O.X.z   - z.T.T.I.A.f.  > [.$X$X$X$X$X$X$X",
"@XR.  ; z.H.Z   & ! +.O.;.,.8.0.8.8.8.0.8.8.8.8.8.8.8.8.8.8.8.8.8.8.8.8.8.0.0.4.;.@.O.| 8   w x.T.Y.P.A.g.:   /.$X$X$X$X$X$X$X$X",
"!.  o f.Y.T.U.I   . z ..@.O.@.,.8.0.8.8.8.8.8.8.8.8.8.8.8.8.8.8.8.8.8.0.8.,.;.@.+.+.W $   f F.Y.Y.L.A.l.:   R $X$X$X$X$X$X$X$X$X",
",   S A.A.I.Y.Y.h.r   & Q ..@.O.@.;.,.4.8.0.8.8.8.8.8.8.8.8.8.8.8.8.,.;.@.+.O.+.' 5   @ I U.Y.Y.S.A.g.:   T $X$X$X$X$X$X$X$X$X$X",
"_.-   F A.A.D.T.Y.G.P o   2 W ..@.O.O.O.@.#.;.>.,.,.,.,.,.>.;.;.@.@.O.O.O.+.~ 8 O   f v.T.T.I.A.A.y.:   T OX$X$X$X$X$X$X$X$X$X$X",
"$X'.,   V b.A.S.I.T.Y.N.N o   # z ] +.O.O.O.O.@.O.O.O.O.O.@.O.O.O.@.X.| W 2     y p.T.Y.Y.D.A.Z.e.    R $X$X$X$X$X$X$X$X$X$X$X$X",
"$X$X{.g   r f.A.A.S.I.Y.T.c.D <     ` O. .' | ..X.+.+.+.+.X. .] Q z 4 .   o N s.U.Y.Y.D.A.A.b.C   @ /.$X$X$X$X$X$X$X$X$X$X$X$X$X",
"$X$X$X.XJ   o F m.A.A.S.I.T.Y.K.a.F J.V.u   . + $ 2 2 2 $ # .       o i U F.T.Y.Y.D.A.A.A.y.:   p [.$X$X$X$X$X$X$X$X$X$X$X$X$X$X",
"$X$X$X$X$X~.,   r t.Z.C.A.S.L.I.Y.T.T.Y.d.S d r < ; - - < w y V I s.F.T.T.Y.P.S.A.A.A.j.N     L .X$X$X$X$X$X$X$X$X$X$X$X$X$X$X$X",
"$X$X$X$X$X$X|.K     i t.S.A.A.A.A.D.I.I.Y.T.T.U.H.G.F.F.H.U.Y.T.T.Y.I.D.S.A.A.C.A.k.C o   s '.$X$X$X$X$X$X$X$X$X$X$X$X$X$X$X$X$X",
"$X$X$X$X$X$X$X$X`.j     r e.b.A.A.A.A.A.A.S.S.L.L.I.P.P.P.L.D.S.A.A.A.A.A.A.n.y.B     1 E OX$X$X$X$X$X$X$X$X$X$X$X$X$X$X$X$X$X$X",
"$X$X$X$X$X$X$X$X$XOX).k     - M e.l.A.A.A.A.A.A.A.A.A.A.A.A.A.C.A.A.A.b.y.S r     a !..X$X$X$X$X$X$X$X$X$X$X$X$X$X$X$X$X$X$X$X$X",
"$X$X$X$X$X$X$X$X$X$X$X$X{.Y ,     o w V G f.l.m.Z.A.A.A.A.Z.b.g.r.S i o     o k ).OX$X$X$X$X$X$X$X$X$X$X$X$X$X$X$X$X$X$X$X$X$X$X",
"$X$X$X$X$X$X$X$X$X$X$X$X$X$XXX).Y h @         o : w r w < - o         a J ^.|.$X$X$X$X$X$X$X$X$X$X$X$X$X$X$X$X$X$X$X$X$X$X$X$X$X",
"$X$X$X$X$X$X$X$X$X$X$X$X$X$X$X$X$XOX|.'.~.Y H s ,       @ a k K E ).}.XX$X$X$X$X$X$X$X$X$X$X$X$X$X$X$X$X$X$X$X$X$X$X$X$X$X$X$X$X"
};
