/* XPM */
static char *_ea382938bcf4760c24c80e29d82fcd0TW4QYzxuJWnq1slF[] = {
/* columns rows colors chars-per-pixel */
"64 64 249 2 ",
"   c #7A5B29",
".  c #755937",
"X  c #7D612E",
"o  c #7C6638",
"O  c #7C5F44",
"+  c #7E6942",
"@  c #91592C",
"#  c #A45A2F",
"$  c #87632D",
"%  c #96662C",
"&  c #866839",
"*  c #976C35",
"=  c #937437",
"-  c #99743A",
";  c #A86A2E",
":  c #AB6B2E",
">  c #A86B34",
",  c #B56C36",
"<  c #A3733B",
"1  c #AB7639",
"2  c #B57739",
"3  c #BC7D3B",
"4  c #D77F26",
"5  c #C17B3B",
"6  c #886B46",
"7  c #956E48",
"8  c #8D7648",
"9  c #997747",
"0  c #997554",
"q  c #A67A47",
"w  c #AD7D43",
"e  c #B57C42",
"r  c #A37C54",
"t  c #C57A45",
"y  c #B58D35",
"u  c #B4853A",
"i  c #BD823D",
"p  c #EF9B08",
"a  c #F7A40D",
"s  c #FAA711",
"d  c #FBAA14",
"f  c #F9AC1B",
"g  c #FCB11E",
"h  c #C5843E",
"j  c #D19330",
"k  c #E39926",
"l  c #D9A535",
"z  c #FDB423",
"x  c #F0B02F",
"c  c #F8B428",
"v  c #FCB62C",
"b  c #FDBB2D",
"n  c #E4A839",
"m  c #FDBC33",
"M  c #FBB937",
"N  c #FEC02F",
"B  c #FCC335",
"V  c #FDC836",
"C  c #FDC43B",
"Z  c #FDC93C",
"A  c #98854C",
"S  c #AA8349",
"D  c #B58447",
"F  c #BC8343",
"G  c #B4824B",
"H  c #BC844B",
"J  c #BC894C",
"K  c #B69646",
"L  c #A88656",
"P  c #B78956",
"I  c #BD8C54",
"U  c #B48C5B",
"Y  c #BC9158",
"T  c #BC915D",
"R  c #BCA654",
"E  c #A98264",
"W  c #BC9361",
"Q  c #B9AB77",
"!  c #C48543",
"~  c #CC8B45",
"^  c #C68A49",
"/  c #D18C4B",
"(  c #C6954C",
")  c #D4934D",
"_  c #C48D54",
"`  c #C78C57",
"'  c #CA9657",
"]  c #C4935B",
"[  c #CA955C",
"{  c #D89857",
"}  c #D39A5E",
"|  c #E29C5A",
" . c #CBA84C",
".. c #D8A35A",
"X. c #DDA35C",
"o. c #ECB74F",
"O. c #FCBD48",
"+. c #E1A65C",
"@. c #C39461",
"#. c #C89862",
"$. c #CD9B61",
"%. c #D49D63",
"&. c #D99E61",
"*. c #DCA263",
"=. c #DAA56A",
"-. c #D2AA68",
";. c #C5B77C",
":. c #E2A867",
">. c #E4AE74",
",. c #E6B277",
"<. c #FAC446",
"1. c #FDCB44",
"2. c #FDCE4C",
"3. c #FDD24C",
"4. c #FEC354",
"5. c #FDC957",
"6. c #FDD354",
"7. c #FCD759",
"8. c #FDD65A",
"9. c #FDDA5D",
"0. c #DBC569",
"q. c #D9C77A",
"w. c #FCD463",
"e. c #FDDD63",
"r. c #FDDD6A",
"t. c #E8CD70",
"y. c #E8D27A",
"u. c #FADC76",
"i. c #FEE066",
"p. c #FEE26C",
"a. c #FDE473",
"s. c #FDE876",
"d. c #F1E07C",
"f. c #FDE47B",
"g. c #FEEA7C",
"h. c #A9A584",
"j. c #B5AF87",
"k. c #B8B486",
"l. c #95BABF",
"z. c #9DBCBB",
"x. c #A8B9AC",
"c. c #B6BEAB",
"v. c #A4BAB5",
"b. c #ABBDB4",
"n. c #A3BEBB",
"m. c #A9BDB8",
"M. c #B1BFB0",
"N. c #C8BB85",
"B. c #C4BC8B",
"V. c #D6BD8B",
"C. c #C3BEA8",
"Z. c #BBC299",
"A. c #BAC3AC",
"S. c #ABC3B9",
"D. c #ACC2BB",
"F. c #B4C2B4",
"G. c #BAC4B3",
"H. c #B9CAB7",
"J. c #B2C4BB",
"K. c #BCCBBC",
"L. c #BBD2BC",
"P. c #CAC28A",
"I. c #D7C888",
"U. c #DDD28D",
"Y. c #C7C897",
"T. c #D4CD95",
"R. c #D9D399",
"E. c #E2CE85",
"W. c #E6D488",
"Q. c #EDDB8C",
"!. c #F3DB82",
"~. c #F4DE88",
"^. c #E0CC90",
"/. c #E8DB95",
"(. c #FCE483",
"). c #FDEC84",
"_. c #F6E28B",
"`. c #FBE58C",
"'. c #FDEC8B",
"]. c #FEF086",
"[. c #FEF18B",
"{. c #EDE397",
"}. c #F4E392",
"|. c #FCE692",
" X c #FCEC93",
".X c #F6E69B",
"XX c #FBED9C",
"oX c #FDF393",
"OX c #FDF39B",
"+X c #C7C8A8",
"@X c #D6CCA9",
"#X c #CBD1AB",
"$X c #D8D6A8",
"%X c #C5CCB4",
"&X c #C9D5B7",
"*X c #D6DBB5",
"=X c #E5DCA6",
"-X c #E4D6B0",
";X c #DCE1AD",
":X c #DAE3B3",
">X c #ECE3A3",
",X c #E8E5A9",
"<X c #F4ECA3",
"1X c #F7EAA4",
"2X c #FCF2A3",
"3X c #F4EBB2",
"4X c #8CBDCF",
"5X c #96BEC7",
"6X c #9ABDC3",
"7X c #87BED7",
"8X c #9BC2C9",
"9X c #8EC2D8",
"0X c #96C5D7",
"qX c #A6C6C7",
"wX c #A9C6C4",
"eX c #ACCACC",
"rX c #B6C9C3",
"tX c #B4CBC4",
"yX c #B3CCCB",
"uX c #ADD1CF",
"iX c #B9D2C9",
"pX c #A8CDD7",
"aX c #B1CED1",
"sX c #ABD1DB",
"dX c #B7D6D7",
"fX c #98CCE6",
"gX c #96CEEF",
"hX c #A1CFE0",
"jX c #A8D6E8",
"kX c #B5DBE6",
"lX c #A4D9F4",
"zX c #B9E2EB",
"xX c #B8E6F3",
"cX c #C1CFC1",
"vX c #C8D6C5",
"bX c #C4D6CB",
"nX c #D3DDCA",
"mX c #C4DBD3",
"MX c #C9DED4",
"NX c #C3DEDB",
"BX c #D6E1CD",
"VX c #CAE2DB",
"CX c #D3E3D4",
"ZX c #C6E6E8",
"AX c #D3ECE7",
"SX c #D7F1EB",
"DX c #C4EBF3",
"FX c #CAEDF2",
"GX c #D1F2F3",
/* pixels */
"C.+X@X@X@X@X@X-X3X3X3X2X2X2X2X1XXXXX.XXXXXXX X|.`.`.`.|.|.|.`.`.`.`.|.|.|.|.|.|.|.|.|.XX1X.X/.=X=X,X,X=X=X=X=X=X=X@X+X+X+X+X+X@X",
"h.Q j.N.N.V.V.I.^./.|.'.[.).s.s.a.a.a.a.a.a.p.9.8.8.9.e.e.e.e.9.6.6.8.e.e.e.e.e.e.e.r.a.f.u.0.q.t.y.y.q.q.q.q.I.;.;.Q Q Q Q ;.;.",
"j.j.k.N.N.I.I.I.U.^.}.'.'.g.a.p.r.p.a.a.a.p.e.6.2.2.6.8.e.e.8.6.2.1.2.6.9.e.9.8.8.e.r.r.f.u.u.u.u.!.!.!.!.!.Q.W.I.;.;.;.;.;.;.Q ",
"B.B.B.N.N.N.I.I.I.I.W.`.).s.r.e.8.9.e.r.e.9.6.2.1.C 1.2.3.3.2.1.M o.<.2.6.6.6.2.3.8.e.r.a.f.f.f.f.(.(.`.`.`.Q.U.I.;.;.N.N.N.N.P.",
"B.P.B.B.N.P.I.I.I.I.E._.'.f.r.8.2.2.2.6.6.2.1.C M x n  . .K D - 6 6 6 9 9 9 K  .<.6.w.r.r.u.f.f.f.f.(.).'._.E.I.I.I.I.I.U.W.W./.",
"I.I.I.P.N.I.U.^.W.E.W.(.).f.e.6.1.C C C C C M h = 6 6 8 9 7 7 7 9 9 9 0 9 9 6 6 9 4.5.8.8.w.r.r.r.r.a.f.(.!.E.I.I.E.Q.}.`. X X X",
"I.W.W.E.E.E.W.Q.}.~._.(.g.a.e.6.<.m v v b n - & 6 8 q P _ I I I Y Y P P L L 0 8 6 ( 5.5.5.5.5.w.r.r.r.f.(.!.!.!._.`.'.'.oXoXoX X",
"N.E.!.(.(.~._.`.'.'.'.).f.r.8.6.<.b z z l 8 9 9 P ] } %.%.} } } $.$.@.] T U L L 0 9 4.5.5.4.5.w.r.r.r.s.(.(.(.).).[.[.[.[.'. X X",
"h.N.W.(.(.(.).).[.[.[.).s.r.8.2.C v z k 9 S Y } =.=.=.=.=.%.%.%.$.$.#.#.@.T T U L L ..5.5.4.5.w.w.r.r.a.s.s.s.g.).].).).'.'. X{.",
"h.j.I.!.f.f.f.).).[.[.).a.e.6.1.m z z u S $.=.=.,.,.,.>.=.=.%.%.$.$.#.#.@.@.W W W U U 4.4.4.4.5.w.w.w.e.e.p.p.s.g.).).).).'.}.U.",
"h.j.N.U.!.a.r.p.a.f.g.s.r.8.1.m z g c S =.>.>.,.,.,.,.>.=.=.*.%.$.$.[ #.@.@.@.W W W U +.4.4.4.4.4.5.5.6.6.8.e.a.s.s.).).'._.W.P.",
"h.j.k.P.W.f.p.r.e.e.p.p.e.3.C v g g j Y :.>.>.>.>.>.>.>.=.=.%.%.$.$.[ [ ] ] ] @.W W U ' 4.O.O.O.M C C 1.3.6.e.p.s.g.).).).Q.I.k.",
"j.j.k.k.I.!.f.a.e.e.e.i.9.2.B z d d u ..:.:.:.>.>.>.=.=.*.%.%.%.} } [ ] ] ] ] T W T T L O.O.O.M m b B 1.3.8.e.p.s.g.).).(.y.;.j.",
"B.B.B.B.P.Q.).g.p.e.e.e.e.6.B g d f S *.:.:.:.:.:.*.*.*.%.%.%.%.%.} [ ] ] ] ] ] T T U L +.O.O.M v v m 1.6.9.e.e.p.g.'.'.(.y.;.Q ",
"T.U.T.U.U.Q.'.].s.p.i.e.e.6.C z s k ( +.+.X.X.*.*.*.*.*.%.%.%.%.%.} [ [ ] ' ] _ Y T T L I O.M v b b m 1.8.e.e.9.i.f.'.[.).!.q.;.",
"/./././.Q._.'.].g.a.p.e.9.6.C g s j ' X.X.X.X.X.*.:.*.*.&.&.%.%.%.} } [ [ ] _ I Y T @.U S O.m v m m m 1.8.e.9.8.9.p.).'.'.`.!.q.",
"/./.}. X'.'.).).g.a.p.e.8.2.m g a j ' X.X.X.X.+.:.:.:...} *.*.%.%.} [ [ ] _ I I I T #.W 9 n v m M M B C 6.9.9.6.6.9.p.g.).'.'.(.",
"I.W.~.'.'.[.).g.s.p.e.8.3.C z d a y ' { ..X.+.:.:.:.*.} } } } } } ] P S q 9 9 r P T #.#.9 u v M M M B V 1.6.8.8.8.9.e.p.f.).).).",
"q.y.!.'.'.[.).s.p.9.6.1.C b g d s 1 ( { { X.+.+.X...} { { ) { _ G - & & & & & 6 7 P @.#.L & l M m m B m C 1.6.9.e.i.p.p.p.a.a.f.",
"!.u.f.f.g.g.s.a.e.6.1.B b z g d a * ( ) { ..' H D ^ / / / / ^ D < * 9 S P S G q q q I $.U & - M v v b b b Z 6.e.p.a.a.a.p.r.r.r.",
"(.a.p.r.p.p.p.e.9.6.<.m z f s d s * ( ) ' S * % $ * e F ~ ~ ! 1 < S q q D w w D w J J $.T & o n v z z v b C 3.8.p.s.s.a.p.p.a.f.",
"_.(.a.r.e.e.e.e.9.6.1.b f d a s s * ^ ( P r q L q w 1 2 ! ! 3 1 < < < < 1 < - 7 9 9 q P ] L 8 - x f z b m 1.6.9.e.p.a.s.s.a.f.!.",
"U.Q._.f.f.a.e.8.8.8.1.v f s a a s * P P 7 0 E 0 0 7 < ; ! / i 1 < * * %   . O O 0 0 r D ^ - X o = j c z b 6.9.e.e.e.p.s.g.f.y.q.",
"Y.T.Q.`.).).a.e.8.6.<.c f s a a s 1 S S P L 0 0 6 6 & 1 i { i 1 - * * -   . 6 6 0 r P J ' q o & w D ! f b 6.e.9.9.e.p.g.).u.q.;.",
"Y.Y.T.Q.'.[.).p.8.6.<.c f s p a s ( L P I w 9 o . & $ 1 ^ { ^ w q q q q 9 q 9 q q P I @.$.U o q G > # j v 6.e.8.9.9.r.f.).(.y.q.",
"k.Z.T.Q.'.[.g.p.9.6.<.c d p p a s j W I I q q & $ - < w { } _ w L P U L w w w e J P ] #.-.T & G e e ; j v 2.9.9.8.8.9.p.f.(.!.y.",
"Z.Y./.|.'.[.g.a.e.6.1.c s p p a s n E ] ' G G w q 1 G e :.&._ H P P ] ] P P J J I J _ [ -.T & w e J , k m 2.6.9.9.9.9.e.r.a.f.!.",
"T./.|. X[.).g.a.e.6.1.b f a p p s l 9 %.*.} _ G G J _ ' :.{ _ _ P I _ [ #.[ [ _ J _ _ #.-.P & G > 2 2 x B <.3.8.9.e.e.e.e.r.r.f.",
"}.'.'.'.).).g.s.p.9.2.V z d a p a n #.} *.&.' _ ' } _ { :.{ / _ J G J ' [ ' ] _ _ _ _ #.-.P 6 ] 1 2 l C C Z 3.6.9.p.a.s.s.a.s.f.",
" X'.'.).).g.g.s.a.p.8.2.B z d s a j G } *.*.:.:.*.' ) | +.{ / ^ H e 2 2 e _ _ _ _ _ ] @.-.P & I 1 2 M C Z 1.6.9.p.s.g.].[.[.'.'.",
" X X'.'.).).g.s.s.p.i.6.1.b z g d 4 2 X.} %.%.*.} ) ~ | | { ~ ! ^ ^ 2 3 5 ! ^ ! _ _ [ ] #.S & w J ! B C 1.6.9.p.s.).[.oXoXoXoX X",
"/.{.|.'.'.].).s.a.p.p.9.3.C N z g k , { { | :.{ ) 5 / ~ t 5 , ; ; ; > 3 3 h ! ! ! _ _ I ] 9 & D _ l V Z 3.8.i.p.g.[.[.'.|.|.}./.",
"Z.Y.T.Q.'.[.).s.a.p.p.e.6.1.C b z f h ) { | { ) ! 2 3 ; ; ; ; % % > 1 F h 3 5 h h ^ _ I G & $ w ( B V Z 6.e.p.p.s.).'.~.W.U.T.T.",
"Z.Y.T.Q.'.'.).s.a.a.p.p.8.6.2.C b z k / { { ) ~ 3 h ~ ; ; % % > < q q G ! h 5 5 i F J J q $ $ u x V V 1.3.9.i.i.p.s.(.!.I.N.N.B.",
"Y.Y.U.~.'.).s.p.p.a.a.p.i.9.8.1.V z f ! ) ) / ! h ~ ~ 3 > > 1 1 < - q q * * 2 3 3 i D 1 * $ = M V Z Z 1.6.e.e.e.e.r.u.u.q.q.N.B.",
"T.W.~.(.f.a.p.e.p.p.p.i.e.e.9.6.Z b g i ) ~ h h ! 1 i ! ! t e 2 2 e w w - $ % 2 3 i 1 * $   = B Z 1.2.3.8.p.p.p.p.r.a.f.!.E.P.N.",
"/._.(.(.a.r.e.e.e.e.e.9.e.i.e.6.1.B z y / h h ~ % * e , 2 , , , > # @ @ @ $   ; 3 i 1 % $   y C 1.3.8.e.p.s.).).).).g.).'._./.T.",
"|.'.'.).f.a.p.p.p.e.e.e.i.i.e.6.2.C B j ! ! ! i % ; @ # # @ # # # # # # > ; @ ; 3 1 * $ X = B Z 3.8.i.a.g.].[.oXoX X XXX X X.X/.",
".X}.|.`.`.(.f.f.f.s.s.a.p.p.e.8.3.3.1.<.u ! ~ 3 % ; ; 5 t / t 5 , , > 2 F 3 > 2 1 * % $ X l V 1.6.e.p.s.).[.oXoXXX.X>X>X>X>X=X=X",
"@XR.R.R.R././.Q.`.).).g.s.p.i.9.9.9.e.e. .D / h % 3 ~ h 5 5 2 , , 2 2 i ! F D 1 - % $ $ = B Z 3.8.i.p.a.g.'. X|..X=X$X#X+X+X+X+X",
"c.c.A.A.+XY.Y.R./.`.[.].g.s.p.p.p.a.s.s.-.9 J ! ; h ~ h 3 2 ; ; ; 2 2 i F F w - % $   $ n Z 1.3.8.e.e.r.a.).'.}./.$X#X+XA.A.M.b.",
"x.x.x.x.A.A.+X#XR.}.[.[.].s.a.a.s.s.g.g.f.A S i h h ~ h h 2 1 ; 2 2 F F F w - $ $     l 3.3.3.6.e.p.e.e.r.a.(.~./.@X+XA.A.M.b.v.",
"x.x.x.b.F.A.+X#X>XXXoX[.).g.s.a.p.p.a.s.s.0.= < 1 i ~ ~ ! F F 2 F F _ _ H q $ $     y 8.e.i.i.p.s.s.s.p.r.r.f.(.Q.R.+X+XF.b.b.v.",
"v.v.v.m.F.A.#X$X.XOXoX[.).s.p.p.p.p.p.a.s.s. .& - < J ' ' ' _ J ^ ^ _ J S 9 $ X X y 8.p.s.s.).].[.[.[.).g.s.f.(._./.R.+XA.F.b.v.",
"v.z.n.S.H.%X$X>XOXOXoX[.g.s.s.a.a.a.s.s.s.s.a.A & 8 S [ $.$.] I J D S 9 = & o o R 9.e.a.s.].[.oXoXoXoXoX X'.).`.'.|./.$X+XA.F.m.",
"6X6Xn.S.H.$X,X<XOXoXoX'.).g.g.f.f.g.).).g.g.s.w.K + 8 L L L L L 9 = = & & + A t.s.a.p.a.s.).oXoXOXOXOXXX.X.X X X X X.X/.$X%XG.F.",
"5X8XwXJ.&X;X<X2XOXoXoX'.'._.Q./.Q._.'.'.].g.s.a.p.t.R L 8 8 8 8 8 & o o A Q '.oX[.).s.s.s.).oXOXOXOXOX1X>X=X=X.XXXXXXX.X=X$X%XH.",
"5XqXwX&X*X,X<X2XOXoX.X/./.R.T.T.T./.|.[.[.].s.a.a.s.g.).d.y.t.0.-.R -.q.'.oXoXoXoXoX[.).g.). XXXXX2X2X<X>X$X$X$X=X>X1X1X>X=X*X%X",
"8XwXL.*X;X,X<X<X<X,X$X+X+X+X+X+XT.$X{.oX[.).g.f.f.(.'.'.).).g.s.s.g.).[.XX>X>XXXOXOXoX[.).'. X>X>X<X2X2X<X$X*X#X#X#X$X=X>X>X$X#X",
"qXtX&X*X,X,X,X*X&XK.F.c.c.c.c.+X+X$X.XoX[.).).).`.}././..X'.'.).).[.oXOX>X$X$X$X>XXXOXoXoXoXXX,X,X,X1X2X1X-X*X%X%XG.F.%X#X$X$X#X",
"eXiXvX*X:X*X&XtXwXD.M.c.c.c.c.+X#X$X>XOXoX[.'.|./.$X$X$X=X.X X'.[.oXOX<X;X&X#X+X$X=X1X2XOXOXXX,X&X*X-X,X<X,X#XH.G.S.m.n.S.G.#X#X",
"eXiXiXvXiXeXqX8XqXb.c.c.c.A.G.%X#X$X>XOXoX X.X=X$X@X@X@X$X=XXXoXoXOXOX,X&XK.H.G.A.+X$X,X,X<X<X;XL.K.%X$X,X=X&XH.H.J.D.n.n.n.S.H.",
"aXaXaXaXpX0X0XqXD.M.c.F.G.G.G.%X%X$X>XXXXX>X$X+X+X+X+X+X%X&X,XOXoXOX2X;XL.wXn.m.b.F.A.%X&X*X;X*XL.wXwXK.&X*X&XH.J.D.D.n.n.z.z.z.",
"pXpXjXjXsXpX8XqXD.M.M.F.F.G.G.G.%X$X,X>X=X$X%XF.F.A.A.A.G.K.*X<XOX2X<X*XtX8X6Xm.b.b.m.S.wXtX&X&XtXqX8X8XJ.%X%XH.S.S.z.z.z.z.l.l.",
"0XfXfXjXkXsXqXqXD.F.J.S.J.K.%X&X*X*X$X$X#XG.F.S.b.F.F.F.S.wXL.;X<X<X,X&XwX8X5Xz.v.v.v.n.8X8XqXqXqX8X9X4X5XS.J.S.S.S.6X6X6X6X6X6X",
"fXfXfXjXkXsXaXwXD.S.S.D.J.J.K.&X*X*X*X%XJ.J.S.m.S.F.F.S.D.qXeX*X,X,X:XiXqX0X4X6Xz.z.z.z.5X9X9X0X0X0X9X7X4X5X8XwXwXiXwX5X5X5X5X6X",
"gXgXgXfXkXdXyXrXJ.J.rXrXK.J.K.vX*X*X&XJ.D.D.J.S.J.J.G.H.J.eXpXiX:X:X&XyXpX0X9X5Xn.n.n.n.5X9X9X7X9X9X9X9X7X7X8XqXiXMXNXdXqXqXqXqX",
"lXgXgXfXfXsXiXtXrXrXrXcXvXvXvXvXvXvXrXrXD.D.J.J.K.K.J.K.rXdXpXuXbXbXiXuX0X0X9X0XqXwXwXwXqX0X0X0X0X0X0X9X9X9X0XeXdXNXmXdXdXdXaXeX",
"lXlXgXfXfXaXyXtXeXtXvXvXnXnXnXvXvXbXrXtXtXD.D.K.K.%X%XK.vXdXsXdXdXdXuXpX0X0X0X0XqXwXwXwXwXqXpXhXfXfXfXfXfXfXpXsXdXNXNXNXNXZXVXNX",
"xXlXlXfXpXaXyXeXeXyXbXbXvXnXnXvXbXyXwXwXtXrXrXrXcXvXvXvXvXdXkXkXNXdXsXsXpXhXhXsXqXeXtXtXtXaXsXjXjXhXjXjXjXjXjXjXdXNXNXVXZXAXAXAX",
"xXxXjXjXsXaXeXeXeXyXyXyXiXbXbXbXiXyXeXeXyXtXrXrXcXcXvXvXvXNXzXkXzXzXkXkXjXjXkXjXsXyXiXiXiXaXsXkXkXjXjXjXjXjXjXkXzXZXVXVXZXAXSXSX",
"lXxXzXkXsXaXaXaXaXaXiXdXaXiXmXiXyXyXeXeXyXyXtXiXbXcXbXvXMXZXDXZXZXzXzXzXzXzXzXkXdXmXbXbXmXmXdXzXxXxXzXzXzXxXxXxXZXZXZXAXAXSXSXSX",
"gXlXkXkXsXdXVXVXmXNXCXCXCXMXCXCXdXdXdXiXiXiXiXiXvXvXbXnXCXAXFXFXFXDXDXDXDXDXDXzXzXMXMXmXmXMXNXZXDXDXDXxXxXxXxXxXDXZXAXAXSXSXSXSX",
"pXjXjXsXdXdXVXVXVXCXCXBXCXCXCXCXMXmXmXmXbXbXvXvXvXnXnXBXCXAXGXGXGXGXFXDXDXDXDXDXZXNXNXMXMXMXNXZXDXDXDXDXDXDXDXxXDXDXFXAXSXSXSXSX"
};
