/* XPM */
static char *a3f6e1b68b334d978bb125951d7916a42jPWUM5PgZyUKaTY[] = {
/* columns rows colors chars-per-pixel */
"64 64 10 1 ",
"  c gray85",
". c gainsboro",
"X c #E1E1E1",
"o c #E7E7E7",
"O c #E9E9E9",
"+ c #EFEFEF",
"@ c #F1F1F1",
"# c #F6F6F6",
"$ c #F9F9F9",
"% c white",
/* pixels */
"%%%%%%%%%%%%%%%%%%%%%%%%%%%%%%%%%%%%%%%%%%%%%%%%%%%%%%%%%%%%%%%%",
"%%%%%%%%%%%%%%%%%%%%%%%%%%%%%%%%%%%%%%%%%%%%%%%%%%%%%%%%%%%%%%%%",
"%%%%%%%%%%%%%%%%%%%%%$.o%%%%%%%%%%%%%%%%%%%%%%%%%%%%%$X.%%%%%%%%",
"%%%%%%%%%%%%%%%%%%%%%X  #%%%%%%%%%%%%%%%%%%%%%%%%%%%%o  +%%%%%%%",
"%%%%%%%%%%%%%%%%%#o#$   #$oo%%%%%%%%%%%%%%%%%%%%%$o@%   +%Oo$%%%",
"%%%%%%%%%%%%%%%%%. X%   $.  @%%%%%%%%%%%%%%%%%%%%X  %.  $X  O%%%",
"%%%%%%%%%%%%%%%%$   %O.#O   #%%%%%%%%%%%%%%%%%%%%   $@.+@   +%%%",
"%%%%%%%%%%%%%%%%%  X%%%%o  o%%%%%%%%%%%%%%%%%%%%%.  %%%%+  .%%%%",
"%%%%%%%%%%%%%%%%%+.#%%%%$o+%%%%%%%%%%%%%%%%%%%%%%@.@%%%%%OO%%%%%",
"%%%%%%%%%%%%%%%%%%#X  X$%%O.o%%%%%%%%%%%%%%%%%%%%%$o  .#%%@.X%%%",
"%%%%%%%%%%%%%%%%%+     X%O   %%%%%%%%%%%%%%%%%%%%@     .%@   #%%",
"%%%%%%%%%%%%%%%%@       $.  X%%%%%%%%%%%%%%%%%%%$       @X  .%%%",
"%%%%%%%%%%%%%%%%+       @O.o%%%%%%%%%%%%%%%%%%%%#       O@.X$%%%",
"%%%%%%%%%%%%%%%%%+o.    +%%%%%%%%%%%%%%%%%%%%%%%%@o.    o%%%%%%%",
"%%%%%%%%%%%%%%%%%%%%@   +%%%%%%%%%%%%%%%%%%%%%%%%%%%#.  X%%%%%%%",
"%%%%%%%%%%%%%%%%%%%%%@  @%%%%%%%%%%%%%%%%%%%%%%%%%%%%$  +%%%%%%%",
"%%%%%%%%%%%%%%%%%%%%%%#@%%%%%%%%%%%%%%%%%%%%%%%%%%%%%%$@%%%%%%%%",
"%%%%%%%%%%%%%%%%%%%%%%%%%%%%%%%%%%%%%%%%%%%%%%%%%%%%%%%%%%%%%%%%",
"%%%%%%%%%%%%%%%%%%%%%%%%%%%%%%%%%%%%%%%%%%%%%%%%%%%%%%%%%%%%%%%%",
"%%%%%%%%%%%%%%%%%%%%%%%%%%%%%%%%%%%%%%%%%%%%%%%%%%%%%%%%%%%%%%%%",
"%%%%%%%%%%%%%%%%%%%%%%%%%%%%%%%%%%%%%%%%%%%%%%%%%%%%%%%%%%%%%%%%",
"%%%%%%%%%%%%%%%%%%%%%%%%%%%%%%%%%%%%%%%%%%%%%%%%%%%%%%%%%%%%%%%%",
"%%%%%%%%%%%%%%%%%%%%%%%%#o#%%%%%%%%%%%%%%%%%%%%%%%%%%%%%$o@%%%%%",
"%%%%%%%%%%%%%%%%%%%%%%%$  .%%%%%%%%%%%%%%%%%%%%%%%%%%%%%.  %%%%%",
"%%%%%%%%%%%%%%%%%%%%#@%+   %$+$%%%%%%%%%%%%%%%%%%%%%$@%#   $%+@%",
"%%%%%%%%%%%%%%%%%%%$  @+  X#   %%%%%%%%%%%%%%%%%%%%%. O#  .$.  $",
"%%%%%%%%%%%%%%%%%%%+  o$  #X   %%%%%%%%%%%%%%%%%%%%#  .%. @o   $",
"%%%%%+ O%%%%%%%%%%%+  O%%%%   O%%%%%%@ X%%%%%%%%%%%#  X%%%%X  X%",
"%%%%$   %%%%%%%%%%%$..$%%%%O.O%%%%%%%.  #%%%%%%%%%%%X @%%%%+.o%%",
"%+X$@   %@XO%%%%%%%%%#oXo@%%%+o#%@X##   ##XX%%%%%%%%%$OXX+%%%@o@",
"#  O@  o@   $%%%%%%%+     #%X  X%  X%  .$   @%%%%%%%@     +%O   ",
"@  X%Oo$.  .%%%%%%%+      X#   O#  .%+o$o   $%%%%%%#       %   X",
"#  +%%%%.  @%%%%%%%.       $  o%%  o%%%%o  O%%%%%%%o       #. X$",
"%+o%#$%%#+#%%%%%%%%@.      $%$%%%@o$$$%%$+#%%%%%%%%#X      @%$%%",
"%%+   X%%$X O%%%%%%%%%#X   $%%%%%%@.  .$%%o X%%%%%%%%%#o   @%%%%",
"%X     O%.  X%%%%%%%%%%%X  %%%%%%o     X%o   %%%%%%%%%%%o  #%%%%",
"o       $   @%%%%%%%%%%%$o+%%%%%@       $   O%%%%%%%%%%%%OO%%%%%",
"o       $OX@%%%%%%%%%%%%%%%%%%%%+       @+X+%%%%%%%%%%%%%%%%%%%%",
"%+o.    #%%%%%%%%%%%%%%%%%%%%%%%%@OX    +%%%%%%%%%%%%%%%%%%%%%%%",
"%%%%@   #%%%%%%%%%%%%%%%%%%%%%%%%%%%#   +%%%%%%%%%%%%%%%%%%%%%%%",
"%%%%%+  %%%%%%%%%%%%%%%%%%%%%%%%%%%%%#  #%%%%%%%%%%%%%%%%%%%%%%%",
"%%%%%%#$%%%%%%%%%%%%%%%%%%%%%%%%%%%%%%$#%%%%%%%%%%%%%%%%%%%%%%%%",
"%%%%%%%%%%%%%%%%%%%%%%%%%%%%%%%%%%%%%%%%%%%%%%%%%%%%%%%%%%%%%%%%",
"%%%%%%%%%%%%%%%%%%%%%%%%%%%%%%%%%%%%%%%%%%%%%%%%%%%%%%%%%%%%%%%%",
"%%%%%%%%%%%%%%%%%%%%%%%%%%%%%%%%%%%%%%%%%%%%%%%%%%%%%%%%%%%%%%%%",
"%%%%%%%%%%%%%%%%%%%%%%%%%%%%%%%%%%%%%%%%%%%%%%%%%%%%%%%%%%%%%%%%",
"%%%%%%%%%%%%%%%%%%%%%%%%%%%%%%%%%%%%%%%%%%%%%%%%%%%%%%%%%%%%%%%%",
"%%%%%%%%%%%%%%%%%%%%%%%%%%%%%%%%%%%%%%%%%%%%%%%%%%%%%%%%%%%%%%%%",
"%%%%%%%%%%O @%%%%%%%%%%%%%%%%%%%%%%%%%%%%%@.O%%%%%%%%%%%%%%%%%%%",
"%%%%%%%%%#  .%%%%%%%%%%%%%%%%%%%%%%%%%%%%%   %%%%%%%%%%%%%%%%%%%",
"%%%%%%Oo%O  .%+X@%%%%%%%%%%%%%%%%%%%%%@o$@   %#oO%%%%%%%%%%%%%%%",
"%%%%%@  @+  O+   %%%%%%%%%%%%%%%%%%%%$  O#  X#   $%%%%%%%%%%%%%%",
"%%%%%O  O%Xo%   X%%%%%%%%%%%%%%%%%%%%@  X%oX$X   %%%%%%%%%%%%%%%",
"%%%%%+  @%%%%   #%%%%%%%%%%%%%%%%%%%%#  O%%%%.  +%%%%%%%%%%%%%%%",
"%%%%%%Xo%$%%%@O#%%%%%%%%%%%%%%%%%%%%%%oX%$%%%#O@%%%%%%%%%%%%%%%%",
"%%%%%%%+.  O%%$X.@%%%%%%%%%%%%%%%%%%%%%@.  o%%$o.+%%%%%%%%%%%%%%",
"%%%%%$X     @%.  o%%%%%%%%%%%%%%%%%%%%o     O%X  .%%%%%%%%%%%%%%",
"%%%%%X      X@   #%%%%%%%%%%%%%%%%%%%O       $   +%%%%%%%%%%%%%%",
"%%%%%.       %XX@%%%%%%%%%%%%%%%%%%%%o       #o.+%%%%%%%%%%%%%%%",
"%%%%%$OX     $%%%%%%%%%%%%%%%%%%%%%%%%Oo.    #%%%%%%%%%%%%%%%%%%",
"%%%%%%%%%O   $%%%%%%%%%%%%%%%%%%%%%%%%%%%+   #%%%%%%%%%%%%%%%%%%",
"%%%%%%%%%%o .%%%%%%%%%%%%%%%%%%%%%%%%%%%%%+  $%%%%%%%%%%%%%%%%%%",
"%%%%%%%%%%%@$%%%%%%%%%%%%%%%%%%%%%%%%%%%%%%##%%%%%%%%%%%%%%%%%%%",
"%%%%%%%%%%%%%%%%%%%%%%%%%%%%%%%%%%%%%%%%%%%%%%%%%%%%%%%%%%%%%%%%"
};
