/* XPM */
static char *_59cacea25f048298ef28a9ee4c92a35JyYAza43MixAP6Lp[] = {
/* columns rows colors chars-per-pixel */
"64 64 250 2 ",
"   c #0A0804",
".  c #0D0C0A",
"X  c #130E07",
"o  c #120E0A",
"O  c #14110C",
"+  c #19140D",
"@  c #1D180E",
"#  c #0F0F12",
"$  c #151411",
"%  c #1A1612",
"&  c #1C1A14",
"*  c #161A1B",
"=  c #1D1C1A",
"-  c #211C15",
";  c #2B1C16",
":  c #221E19",
">  c #3C171A",
",  c #24221C",
"<  c #2A241E",
"1  c #2F291F",
"2  c #30231F",
"3  c #1D2121",
"4  c #292824",
"5  c #2B2924",
"6  c #342B27",
"7  c #36342C",
"8  c #3A3734",
"9  c #710E14",
"0  c #5B2121",
"q  c #4B342C",
"w  c #453A35",
"e  c #543937",
"r  c #772F32",
"t  c #4A433C",
"y  c #55463B",
"u  c #604E3C",
"i  c #4B4643",
"p  c #554A43",
"a  c #5B5449",
"s  c #535451",
"d  c #64584B",
"f  c #70544E",
"g  c #665C54",
"h  c #7D664F",
"j  c #6C655A",
"k  c #766656",
"l  c #786A66",
"z  c #726F6B",
"x  c #7C7368",
"c  c #8D030C",
"v  c #95030D",
"b  c #880B14",
"n  c #930512",
"m  c #970A16",
"M  c #8A1218",
"N  c #99141E",
"B  c #A5030D",
"V  c #A70A1B",
"C  c #B9061B",
"Z  c #A7131E",
"A  c #8E1D20",
"S  c #9C1824",
"D  c #A80C25",
"F  c #B70E22",
"G  c #A91826",
"H  c #B81927",
"J  c #BE1E31",
"K  c #972427",
"L  c #8F2E32",
"P  c #A6252A",
"I  c #B5242A",
"U  c #BB232C",
"Y  c #A9312E",
"T  c #AC2832",
"R  c #BB2633",
"E  c #B32B34",
"W  c #B82936",
"Q  c #A93539",
"!  c #B3343D",
"~  c #B6383D",
"^  c #C61727",
"/  c #C31D2B",
"(  c #CB1C2A",
")  c #CE192C",
"_  c #D81C32",
"`  c #C3222D",
"'  c #C9232E",
"]  c #D4212E",
"[  c #C42532",
"{  c #CC2533",
"}  c #CC2B35",
"|  c #C42B39",
" . c #CD2D3A",
".. c #D72635",
"X. c #D42B3A",
"o. c #DB2C3C",
"O. c #C2343C",
"+. c #C7363C",
"@. c #CC333D",
"#. c #D3323B",
"$. c #DC313C",
"%. c #E32839",
"&. c #E2323F",
"*. c #B1433B",
"=. c #983E46",
"-. c #AD3C43",
";. c #B33B42",
":. c #B93943",
">. c #DC2F40",
",. c #C93745",
"<. c #C53A42",
"1. c #CB3C43",
"2. c #D43441",
"3. c #D43B44",
"4. c #DA3946",
"5. c #E52E41",
"6. c #E33343",
"7. c #EC3444",
"8. c #E53B4C",
"9. c #F13748",
"0. c #8F5351",
"q. c #AF4F4F",
"w. c #BA4545",
"e. c #B74749",
"r. c #B94D51",
"t. c #B8595A",
"y. c #856D59",
"u. c #98635C",
"i. c #B5615D",
"p. c #9F5E60",
"a. c #876669",
"s. c #88796A",
"d. c #967866",
"f. c #907772",
"g. c #A86B68",
"h. c #BC6768",
"j. c #AA7671",
"k. c #B47675",
"l. c #C8444A",
"z. c #D3444C",
"x. c #D7474D",
"c. c #C1554A",
"v. c #C94B54",
"b. c #D64952",
"n. c #DB4B53",
"m. c #C35455",
"M. c #C65959",
"N. c #CB5B5C",
"B. c #D85459",
"V. c #E64956",
"C. c #E15F5E",
"Z. c #D1635A",
"A. c #C65D62",
"S. c #D65A63",
"D. c #E35262",
"F. c #C56768",
"G. c #D96769",
"H. c #DD746C",
"J. c #DB6A72",
"K. c #C87274",
"L. c #DB7375",
"P. c #E3666A",
"I. c #E56A73",
"U. c #E47775",
"Y. c #E67674",
"T. c #97816C",
"R. c #8B837A",
"E. c #988978",
"W. c #A8846F",
"Q. c #A98B77",
"!. c #B2867B",
"~. c #AD967D",
"^. c #D5877A",
"/. c #E5857B",
"(. c #BB7E83",
"). c #DB7C81",
"_. c #E37A82",
"`. c #958D84",
"'. c #9C9286",
"]. c #94938E",
"[. c #B9838A",
"{. c #A79786",
"}. c #AA918F",
"|. c #B79A84",
" X c #B98C96",
".X c #B99696",
"XX c #B6A48E",
"oX c #ABA499",
"OX c #B9A897",
"+X c #BFB09F",
"@X c #B6ACA4",
"#X c #BCB3A9",
"$X c #BBB9B6",
"%X c #C7868A",
"&X c #D0938E",
"*X c #C79499",
"=X c #E98C91",
"-X c #C4AC96",
";X c #CEAE96",
":X c #C8B49C",
">X c #C899A3",
",X c #D49EA6",
"<X c #F29AA1",
"1X c #C4ACA3",
"2X c #D7ADAC",
"3X c #C4B6A3",
"4X c #C8B8A9",
"5X c #D5B8A3",
"6X c #C8BCB2",
"7X c #E3A4A8",
"8X c #EFAFB2",
"9X c #E8B7BA",
"0X c #BFC0B4",
"qX c #CEC2AE",
"wX c #D5C4AB",
"eX c #DBC4AB",
"rX c #CAC6BA",
"tX c #D6C8B6",
"yX c #D9D0BC",
"uX c #E5CAB7",
"iX c #E4D2BD",
"pX c #C8C7C3",
"aX c #D5CEC2",
"sX c #CFD0C4",
"dX c #D9D5C9",
"fX c #DBDBCF",
"gX c #DAD9D3",
"hX c #DDDED1",
"jX c #E9C8CA",
"kX c #F3CACB",
"lX c #E6D6C8",
"zX c #E7DAD4",
"xX c #F3DADC",
"cX c #DFE0D5",
"vX c #E3E3D6",
"bX c #E4E5DB",
"nX c #E9E6D8",
"mX c #EAE9DC",
"MX c #F2EADB",
"NX c #EFDFE0",
"BX c #EBECE3",
"VX c #EBE8E6",
"CX c #F7E9E8",
"ZX c #EEF1E9",
"AX c #F3F1E5",
"SX c #F2F3EB",
"DX c #FBEFF0",
"FX c #F7F5F5",
"GX c #FBF4F4",
"HX c #FFFFFF",
/* pixels */
"HXHXHXHXHXHXHXHXHXHXHXHXHXHXHXHXHXHXHXHXHXHXHXHXHXHXHXHXHXHXHXHXHXHXHXHXHXHXHXHXHXHXHXHXHXHXHXHXHXHXHXHXHXHXHXHXHXHXHXHXHXHXHXHX",
"HXHXHXHXHXHXHXHXHXHXHXHXHXHXHXHXHXHXHXHXHXHXHXHXHXHXHXHXHXHXHXHXHXHXHXHXHXHXHXHXHXHXHXHXHXHXHXHXHXHXHXHXHXHXHXHXHXHXHXHXHXHXHXHX",
"HXHXHXHXHXHXHXHXHXHXHXHXHXHXHXHXHXHXHXHXHXHXHXHXHXHXHXHXHXHXHXHXHXHXHXHXHXHXHXHXHXHXHXHXHXHXHXHXHXHXHXHXHXHXHXHXHXHXHXHXHXHXHXHX",
"HXHXHXHXHXHXHXHXHXHXHXHXHXHXHXHXHXHXHXHXHXHXHXHXHXHXHXHXHXHXHXHXHXHXHXHXHXHXHXHXHXHXHXHXHXHXHXHXHXHXHXHXHXHXHXHXHXHXHXHXHXHXHXHX",
"HXHXHXHXHXHXHXHXHXHXHXHXHXHXHXHXHXHXHXHXHXHXHXHXHXHXHXHXHXHXHXHXHXHXHXHXHXHXHXHXHXHXHXHXHXHXHXHXHXHXHXHXHXHXHXHXHXHXHXHXHXHXHXHX",
"HXHXHXHXHXHXHXHXHXHXHXHXHXHXHXHXHXHXHXHXHXHXHXHXHXHXHXHXHXHXHXHXHXHXHXHXHXHXHXHXHXHXHXHXHXHXHXHXHXHXHXHXHXHXHXHXHXHXHXHXHXHXHXHX",
"HXHXHXHXHXHXHXHXHXHXHXHXHXHXHXHXHXHXHXHXHXHXHXHXHXHXHXHXHXHXHXHXHXHXHXHXHXHXHXHXHXHXHXHXHXHXHXHXHXHXHXHXHXHXHXHXHXHXHXHXHXHXHXHX",
"HXHXHXHXHXHXHXHXHXHXHXHXHXHXHXHXHXHXHXHXHXHXHXHXHXHXHXHXHXHXHXHXHXHXHXHXHXHXHXHXHXHXHXHXHXHXHXHXHXHXHXHXHXHXHXHXHXHXHXHXHXHXHXHX",
"HXHXHXHXHXHXHXHXHXHXHXHXHXHXHXHXHXHXHXHXHXHXHXHXHXHXHXHXHXHXHXHXHXHXHXHXHXHXHXHXHXHXHXHXHXHXHXHXHXHXHXHXHXHXHXHXHXHXHXHXHXHXHXHX",
"HXHXHXHXHXHXHXHXHXHXHXHXHXHXHXHXHXHXHXHXHXHXHXHXHXHXHXHXHXHXHXHXHXHXHXHXHXHXHXHXHXHXHXHXHXHXHXHXHXHXHXHXHXHXHXHXHXHXHXHXHXHXHXHX",
"HXHXHXHXHXHXHXHXHXHXHXHXHXHXHXHXHXHXHXHXHXHXHXHXHXHXHXHXHXHXHXHXHXHXHXHXHXHXHXHXHXHXHXHXHXHXHXHXHXHXHXHXHXHXHXHXHXHXHXHXHXHXHXHX",
"HXHXHXHXHXHXHXHXHXHXHXHXHXHXHXHXHXHXHXHXCXzX6XOX@X#XgXHXHXHXHXHXHXHXHXHXHXHXHXHXHXHXHXHXHXHXHXHXHXHXHXHXHXHXHXHXHXHXHXHXHXHXHXHX",
"HXHXHXHXHXHXHXHXHXHXHXHXHXHXHXHXHXHXVX#Xk y y a j y y s.oXrXgXZXHXHXFXFXHXHXGXHXHXHXHXHXHXHXHXHXHXHXHXHXHXHXHXHXHXHXHXHXHXHXHXHX",
"HXHXHXHXHXHXHXHXHXHXHXHXHXHXHXHXHX1Xy.d 7 a t p j j y s.{.'.R.'.R.z s s l k._.<X8XkXCXHXHXHXHXHXHXHXHXHXHXHXHXHXHXHXHXHXHXHXHXHX",
"HXHXHXHXHXHXHXHXHXHXHXHXHXHXHXHX1Xu j k a p 5 o $ t l `.3XqX4XoXR.6 8 8 = = e F.I.Y.Y.8XHXHXHXHXHXHXHXHXHXHXHXHXHXHXHXHXHXHXHXHX",
"HXHXHXHXHXHXHXHXHXHXHXHXHXHXFX3Xy w k k j 8 %     o w E.3XtXtXqXOXs., $ = 3 * 6 A.I.P.I.<XGXHXHXHXHXHXHXHXHXHXHXHXHXHXHXHXHXHXHX",
"HXHXHXHXHXHXHXHXHXHXHXHXHXHX3Xq 1 - d k d 5 %   . & % 5 j #XyXtXtX3Xp % 8 x i 3 e S.G.L.I.=XCXHXHXHXHXHXHXHXHXHXHXHXHXHXHXHXHXHX",
"HXHXHXHXHXHXHXHXHXHXHXHXHXHXp + & X < 6 < - % $ 5 6 5 5 5 a {.3XqX:X{.7 5 s i 5 * 0.F.L.L.J._.CXHXHXHXHXHXHXHXHXHXHXHXHXHXHXHXHX",
"HXHXHXHXHXHXHXHXHXHXHXHXHXzX-   X + - - & + O O 6 5 5 , t 5 7 g {.{.XXE.a t w 5 * q v.G.L.L.J._.CXHXHXHXHXHXHXHXHXHXHXHXHXHXHXHX",
"HXHXHXHXHXHXHXHXHXHXHXHXHXoXO     + - @ + + & O O = s 5 s 5 $ = g f.{.-X{.s.d & $ & ! 1.n.G.G.G.).GXHXHXHXHXHXHXHXHXHXHXHXHXHXHX",
"HXHXHXHXHXHXHXHXHXHXHXHXHX].& + + 1 7 7 %   & & % & 8 7 6 , & 5 p k {.:XwX:X~.& # > R [ 1.n.B.B.v.=XHXHXHXHXHXHXHXHXHXHXHXHXHXHX",
"HXHXHXHXHXHXHXHXHXHXHXHXHXR.: < , < 5 < < X   O = , , 5 5 = , a E.{.R.s.wXeXOXe 0 P ` U } ,.3.n.z.l.8XHXHXHXHXHXHXHXHXHXHXHXHXHX",
"HXHXHXHXHXHXHXHXHXHXHXHX7Xe , & O : < & , % O   o , , & & & 5 j '.+XOXg 3XwX-XW.F.R J J [  . .4.3.,.v.xXHXHXHXHXHXHXHXHXHXHXHXHX",
"HXHXHXHXHXHXHXHXHXHXGX7XN.r & O + , < 6 7 5 & $   . & & $ $ = i x E.'.s.3X5X-XW.5X&XO.H H ' { 2.4.2.2.S.9XkXxXxXCXVXxXxXjXjXVXGX",
"HXHXHXHXHXHXHXHXHXjXK.m.N.L + O & 5 5 5 6 5 5 7 % . $ $ O X O & 5 t l f.XX-X-X|.5XeX&XR / ` { X.4.2. .{ W T E E ~ ! ! Q ! ;.e.A.",
"HXHXHXHXHXHXHXHXkXM.v.b.z.L O O % - : , : & - & , O $ $ . . . O % : t f.{.|.|.-X;XeXuXM.H ' ....$.#. .@.W Y Q Q Q T U E Q Q ~ ! ",
"HXHXHXHXHXHXHXGXK.M.m.3.3.O.> + O O % % X O % & . . . $ O . . . X O < d d.{.~.-X;XeXlX^.F ^ ] ( $... . .W Y Y Q Q Q P U E ~ ~ ~ ",
"HXHXHXHXHXHXHX7XM.F.m.1.#.} Q : + o O o X + & $ O O $ $ % & & $ % . - 6 y.{.~.;X-XeXlX^.^ ( ) ..o.{ } } [ G P P Y Y Y Y | ~ ~ ~ ",
"HXHXHXHXHXHXxXN.v.z.3.2.} ' R y & $ O o   7 a.f.a.l f 6 O 7 2 & $ . < y Q.Q.|.-X5XeX5XN.] _ _ %...' } } [ G G G G P P Y E | ! ~ ",
"HXHXHXHXHXGXL.n.n.3.#.#.} ` / k.d - O % o f [. X[. X Xf % t w < : . w h Q.T.|.;XeXuX5XL.7.%.%.%.( / } } [ H G Z Z Z G G G ' E Q ",
"HXHXHXHXHX=Xn.x.z.z.3.3.1.[ / m.:Xd : & , a  X X X*X*X[.p w t 8 $ O y s.T.~.|.;XeXiXuXY.%.%.%.&.( ^ / [ [ H Z V V V V V V F H I ",
"HXHXHXHX9Xn.n.b.b.b.1.1.1. ./ <.eX4XE.< & w  X X*X>X>X*X[.f 5 < o ; u E.{.-X:XtXiXlXuXU.%.7.7.%.^ H H ` ` H m m V D F F F F F ) ",
"HXHXHXxXB.b.b.F.N.z.+.+.+.@.| b.lXyX:Xk , 5 a.*X>X>X>X*X*X(.e . + y s.+X#XtX4XdXnXMXuX/...7.%...( / / ` ` J m v v m V G D D H _ ",
"HXHXHXL.b.N.A.A.z.l.1.1.+.@.P.S.zXzX6XXXk 6 e [.>X>X>X*X*X%Xg.; ; f s.OX3XtXtXlXMXAXlX/...6.%...( { { { { [ V c c v m N N N G ( ",
"HXHX7Xv.m.A.M.l.<.<.<.l.1. .x.n.kXmXdXqX{.k y w f.,X>X%X[.[.k.0.q h d.XX3XqXtXzXMXAXuX/...&.o.( ^ ' } X.2. .H n n n n m m N S / ",
"HXDXA.m.m.M.m.<.1.<.1.1.#.#.x.x.kXmXzXyXXXx g p 8 g .X*Xk.g.j.g.u.y.T.{.XX3XtXdXzXnXiXG.o.6.] ^ ^ ' }  .3.2.[ m n n n m m m N G ",
"HX9Xr.r.r.m.l.+.l.l.b.1.X.X.V.3.kXBXmXfXrXE.p i i p i a.%Xk.u.j.k.d.~.XXXX-X4XtXlXnXlXP.&.( / ^ ..X.X. .2.3. .V n v n n b M N S ",
"HX&Xe.r.r.m.l.O.<.1.1.+.#.#.C.V.8XAXSXmXvXrXx w 7 6 6 5 k %Xk.u.j.!.Q.4X4X:X:XwXdXlXuXC.' @.} ( ..{ { {  .2.@.V v v c b M M M N ",
"HXK.w.e.r.m.l.<.O.1.1. .X.H Y.V.8XMXBXBXbXcXrXoX`.j g s.{..X&Xk.u.!.!.|.tXtX5X:XwXeX&Xx.#.3.#.{ ..{ { { { #. .G v v v b b M M M ",
"HXF.e.w.w.m.l.<.O.+.1.#.` T H.V.=XAXAXBXvXbXfXsXrX6XrX#XoX0XrX&Xg.u.!.Q.d.yXyXeXeXeX^.#.$.| / ] X.{ { { { { { H Z Z H H I I I G ",
"HXF.e.w.w.r.l.<.+.1.1.@.G M.F.I.Y.nXmXmXbXvXfXfXfXcXfXsXsXdXgXdX&Xg.d.d.h 6XmXvXlXeX&X} { C C ..o.{ X.X.X.X.{ U U U U U [ ' } X.",
"HXK.e.w.w.l.<.1.1.1.<.U w.h.F.P.G.lXvXmXmXbXvXvXhXhXhXcXgXgXbXbXzX*X!.d.f aXAXBXvXlX5Xr.^ ^ _ ..o.{ { ..X.4.U Y *.~ P P I I ` } ",
"HX,Xe.;.:.<.<.<.1.1.R E t.i.t.L.b.9XbXmXbXmXvXvXfXdXhXhXvXhXbXbXvXvX6X1X-XmXAXBXvXyX|.i.V.%....._ ......6.6.N K *.c.*.P P P I U ",
"HXzXe.;.~ <.<.<.+.W H -.h.t.t.m.l.).zXmXbXmXmXvXhXvXhXcXbXvXfXvXhXhXfXdXbXSXSXbXtX|.g.N.V.7.%.7.%.6.$.6.V.8.b A Q c.M.w.Y ~ l.| ",
"HXGXt.;.W W <.,.O.E G -.t.t.i.m.F.M.2XzXvXhXvXbXmXvXhXhXhXcXdXvXbXbXbXbXSXSXBXrXQ.u.e.D.6.o.7.9.9.o.6.V.8.>.9 9 A *.c.Z.w.+.n.x.",
"HXHX&X-.W W | O.! ! P ! q.t.t.r.F.M.M.,XdXhXhXvXbXBXmXbXbXvXbXbXBXBXBXBXBXBXaX{.j.Q ,.>.o.2.8.7.9._ 6.8.6.{ b 9 M K e.Z.Z.l.1.n.",
"HXHXCXq.! R W | W Q ! Q ! r.q.e.t.F.r.:.F.6XfXbXBXSXZXBXBXBXBXBXBXSXSXBXgXaXOX|.p.M o.o.4.n.V.5.9._ 7.8.6.H b M M M w.Z.H.U.G.b.",
"HXHXHX2X;.E I W R R ~ ;.! ! e.;.t.h.r.P G Q k.dXbXBXZXBXBXBXbXSXZXZXBXrX@XOX1Xk.M c { ..2.n.4.5.7.%.8.6...Z S K K K Q G.H.U./.U.",
"HXHXHXHX%X! T I W W ~ ! ;.E T ! e.q.Y S S 9 9 0.6XhXbXbXbXcXbXBXdX@XoXoX4X4Xh.G B V { o.>.n.2.%.7.%.6.o.J G S P P :.v.G.Y.H.U.G.",
"HXHXHXHXGX%X;.T E W ;.! ;.! T E G G N M b 9 9 9 r k.4X*X*X.X@X@X`.}.OX!.t.! B B C F :.n.V.8.8.5.5.6.6...H G R O.<.<.l.N.U.H./.=X",
"HXHXHXHXHXHXjXK.;.E ! ! ;.r.e.! T G S S b p..Xr r r L | [ R :.A.1Xh.:.H C F C C ^ J L ,XY.P.V.8.8.>.8.2.O.1.z.z.1.x.1.<.v.m.G.N.",
"HXHXHXHXHXHXHXHXNXF.! -.-.e.e.r.:.;.T S =.CXHXzX0.r L S [ H G H :.R J H H / ^ ) X.J 9 -X:X&XK.S._.=XkXkX8X=X=XL.J.G.S.S.B.N.S.G.",
"HXHXHXHXHXHXHXHXHXHXjX,XK.e.l.v.S.v.-.L 1XHXHXHXNXk.=.L P [ H D D G G D D D ' X.4.;.u.;XtX5X&XzXGXHXHXHXHXHXHXHXHXGXGXDXCXCXCXDX",
"HXHXHXHXHXHXHXHXHXHXHXHXHXNX&Xm.K.%X}.s.@XHXHXHXHXHXDXjX2X&Xz.H D D D D D G [ 4.S.CXzXtXlXiX5XzXHXHXHXHXHXHXHXHXHXHXHXHXHXHXHXHX",
"HXHXHXHXHXHXHXHXHXHXHXHXHXHXHXVX#X$X@X{.f.FXHXHXHXHXHXHXHXHXCXJ.J R P T :.,.,.B.CXHXFXzXMXnXiX5XHXHXHXHXHXHXHXHXHXHXHXHXHXHXHXHX",
"HXHXHXHXHXHXHXHXHXHXHXHXHXHXHXVX#X#X{.'.k $XHXHXHXHXHXHXHXHXHXHX9XS.E :.,.,.I.xXHXHXFXzXnXiXtXeXzXHXHXHXHXHXHXHXHXHXHXHXHXHXHXHX",
"HXHXHXHXHXHXHXHXHXHXHXHXHXHXHXpX'.s.k d k R.HXHXHXHXHXHXHXHXHXHXHXGXjX8X7X9XDXHXHXHXFXlX:X|.|.XX4XHXHXHXHXHXHXHXHXHXHXHXHXHXHXHX",
"HXHXHXHXHXHXHXHXHXHXHXHXHXHXHX`.a E.k p w l HXHXHXHXHXHXHXHXHXHXHXHXHXHXHXHXHXHXHXHXFX4X{.tX+Xs.`.HXHXHXHXHXHXHXHXHXHXHXHXHXHXHX",
"HXHXHXHXHXHXHXHXHXHXHXHXHXHXHXj 6 s.t i : $XHXHXHXHXHXHXHXHXHXHXHXHXHXHXHXHXHXHXHXHXHX].x rX`.`.].HXHXHXHXHXHXHXHXHXHXHXHXHXHXHX",
"HXHXHXHXHXHXHXHXHXHXHXHXHXHXHXpXt p 5 i @XFXHXHXHXHXHXHXHXHXHXHXHXHXHXHXHXHXHXHXHXHXHX$Xz oXj `.VXHXHXHXHXHXHXHXHXHXHXHXHXHXHXHX",
"HXHXHXHXHXHXHXHXHXHXHXHXHXHXHXHXFXpX$XZXHXHXHXHXHXHXHXHXHXHXHXHXHXHXHXHXHXHXHXHXHXHXHXHXVX$X$XVXHXHXHXHXHXHXHXHXHXHXHXHXHXHXHXHX",
"HXHXHXHXHXHXHXHXHXHXHXHXHXHXHXHXHXHXHXHXHXHXHXHXHXHXHXHXHXHXHXHXHXHXHXHXHXHXHXHXHXHXHXHXHXHXHXHXHXHXHXHXHXHXHXHXHXHXHXHXHXHXHXHX",
"HXHXHXHXHXHXHXHXHXHXHXHXHXHXHXHXHXHXHXHXHXHXHXHXHXHXHXHXHXHXHXHXHXHXHXHXHXHXHXHXHXHXHXHXHXHXHXHXHXHXHXHXHXHXHXHXHXHXHXHXHXHXHXHX",
"HXHXHXHXHXHXHXHXHXHXHXHXHXHXHXHXHXHXHXHXHXHXHXHXHXHXHXHXHXHXHXHXHXHXHXHXHXHXHXHXHXHXHXHXHXHXHXHXHXHXHXHXHXHXHXHXHXHXHXHXHXHXHXHX"
};
