/* XPM */
static char *_b85acf8932f400a9e2dd9a8132a22f7AwwOWpznwDrjwzHD[] = {
/* columns rows colors chars-per-pixel */
"64 64 108 2 ",
"   c #3C5DB3",
".  c #3E5FB4",
"X  c #3D63B6",
"o  c #3F66B8",
"O  c #4565B6",
"+  c #4867B7",
"@  c #456ABA",
"#  c #446EBC",
"$  c #4968B8",
"%  c #4E6DBA",
"&  c #4B6FBC",
"*  c #516FBB",
"=  c #4670BD",
"-  c #4970BC",
";  c #4C70BD",
":  c #5172BD",
">  c #5672BD",
",  c #5575BE",
"<  c #5A77BF",
"1  c #5C78BF",
"2  c #4875C0",
"3  c #4B7BC3",
"4  c #4E7FC5",
"5  c #5C79C0",
"6  c #5C7DC2",
"7  c #607BC1",
"8  c #627DC2",
"9  c #647FC2",
"0  c #4F82C7",
"q  c #548ACB",
"w  c #558BCC",
"e  c #578FCE",
"r  c #5891CF",
"t  c #5993D0",
"y  c #5A94D1",
"u  c #5E9BD5",
"i  c #5F9DD5",
"p  c #6781C4",
"a  c #6983C5",
"s  c #6A84C5",
"d  c #6E87C6",
"f  c #7088C7",
"g  c #738BC8",
"h  c #768ECA",
"j  c #788FCA",
"k  c #7A91CB",
"l  c #7F95CD",
"z  c #619FD6",
"x  c #63A4D9",
"c  c #64A5DA",
"v  c #67ABDD",
"b  c #69AEDF",
"n  c #6DB6E3",
"m  c #6EB7E4",
"M  c #6FB9E5",
"N  c #8096CD",
"B  c #8398CF",
"V  c #869BD0",
"C  c #899DD1",
"Z  c #8CA0D2",
"A  c #90A3D4",
"S  c #92A5D5",
"D  c #94A6D5",
"F  c #97A9D6",
"G  c #99AAD7",
"H  c #9BACD8",
"J  c #9CADD8",
"K  c #A1B1DA",
"L  c #A4B3DB",
"P  c #A7B7DD",
"I  c #A8B7DD",
"U  c #ABB9DE",
"Y  c #ACBADF",
"T  c #AEBCDF",
"R  c #AFBDE0",
"E  c #B1BEE0",
"W  c #B3C0E1",
"Q  c #B5C1E2",
"!  c #B7C4E3",
"~  c #B8C4E3",
"^  c #BBC7E4",
"/  c #BEC9E5",
"(  c #C0CBE6",
")  c #C2CCE7",
"_  c #C3CDE8",
"`  c #C4CEE8",
"'  c #C7D1E9",
"]  c #CAD3EA",
"[  c #CBD4EA",
"{  c #CDD6EB",
"}  c #CED6EC",
"|  c #D3DAED",
" . c #D5DDEF",
".. c #DAE0F0",
"X. c #DDE2F1",
"o. c #DFE4F2",
"O. c #E0E5F3",
"+. c #E3E8F4",
"@. c #E4E9F4",
"#. c #E9EDF6",
"$. c #ECEFF7",
"%. c #EDF0F8",
"&. c #F0F2F9",
"*. c #F3F5FA",
"=. c #F5F7FB",
"-. c #F6F8FB",
";. c #F9FAFC",
":. c white",
/* pixels */
":.:.:.:.:.:.:.:.:.:.:.:.:.:.:.:.:.:.:.:.:.:.:.:.:.:.:.:.:.:.:.:.:.:.:.:.:.:.:.:.:.:.:.:.:.:.:.:.;.) J J ] :.:.:.:.:.:.:.:.:.:.:.",
":.:.:.:.:.:.:.:.:.:.:.:.:.:.:.:.:.:.:.:.:.:.:.:.:.:.:.:.:.:.:.:.:.:.:.:.:.:.:.:.:.:.:.:.:.:.:.O.> Z K K V s $.:.:.:.:.:.:.:.:.:.",
":.:.:.:.:.:.:.:.:.:.:.:.:.:.:.:.:.:.:.:.:.:.:.:.:.:.:.:.:.:.:.:.:.:.:.:.:.:.:.:.:.:.:.:.:.:.:., ~ , h h 8 I d :.:.:.:.:.:.:.:.:.",
":.:.:.:.:.:.:.:.:.:.:.:.:.:.:.:.:.:.:.:.:.:.:.:.:.:.:.:.:.:.:.:.:.:.:.:.:.:.:.:.:.:.:.:.:.:./ S 5 ..:.:.| g B ' :.:.:.:.:.:.:.:.",
":.:.:.:.:.:.:.:.:.:.:.:.:.:.:.:.:.:.:.:.:.:.:.:.:.:.:.:.:.:.:.:.:.:.:.:.:.:.:.:.:.:.:.:.:.:.V K B :.:.:.:.h I C :.:.:.:.:.:.:.:.",
":.:.:.:.:.:.:.:.:.:.:.:.:.:.:.:.:.:.:.:.:.:.:.:.:.:.:.:.:.:.:.:.:.:.:.:.:.:.:.:.:.:.:.:.:.:.d T U :.:.:.:.P E s :.:.:.:.:.:.:.:.",
":.:.:.:.:.:.:.:.:.:.:.:.:.:.:.:.:.:.:.:.:.:.:.:.:.:.:.:.:.:.:.:.:.:.:.:.:.:.:.:.:.:.:.:.:.| * 5 C =.:.:.:.Q J > :.:.:.:.:.:.:.:.",
":.:.:.:.:.:.:.:.:.:.:.:.:.:.:.:.:.:.:.:.:.:.:.:.:.:.:.:.:.:.:.:.:.:.:.:.:.:.:.:.:.:.:.:.Z g ( { P < ..:.:.Q J 5 :.:.:.:.:.:.:.:.",
":.:.:.:.:.:.:.:.:.:.:.:.:.:.:.:.:.:.:.:.:.:.:.:.:.:.:.:.:.:.:.:.:.:.:.:.:.:.:.:.:.:.:.U Z :.:.:.:.O.< =.:.Q Q s :.:.:.:.:.:.:.:.",
":.:.:.:.:.:.:.:.:.:.:.:.:.:.:.:.:.:.:.:.:.:.:.:.:.:.:.:.:.:.:.:.:.:.:.:.:.:.:.:.:.:.:., ;.:.:.:.:.:.K T :.Q Q s :.:.:.:.:.:.:.:.",
":.:.:.:.:.:.:.:.:.:.:.:.:.:.:.:.:.:.:.:.:.:.:.:.:.:.:.:.:.:.:.:.:.:.:.:.:.:.:.:.:.:.O.> J J J J J J B C :.Q Q s :.:.:.:.:.:.:.:.",
":.:.:.:.:.:.:.:.:.:.:.:.:.:.:.:.:.:.:.:.:.:.:.:.:.:.:.:.:.:.:.:.:.:.:.:.:.:.:.:.:.:.;.{ { { { { { { { O.:.Q Q s :.:.:.:.:.:.:.:.",
":.:.:.:.:.:.:.:.:.:.:.:.:.:.:.:.:.:.:.:.:.:.:.:.:.:.:.:.:.:.:.:.:.:.:.:.:.:.:.:.:.:.:.:.:.:.:.:.:.:.:.:.:.Q Q s :.:.:.:.:.:.:.:.",
":.:.:.:.:.:.:.:.:.:.:.:.:.:.:.:.:.:.:.:.:.:.:.:.:.:.:.:.:.:.:.:.:.:.:.:.:.:.:.:.:.:.:.:.:.:.:.:.:.:.:.:.:.Q Q s :.:.:.:.:.:.:.:.",
":.:.:.:.:.:.:.:.:.:.:.:.:.:.:.:.:.:.:.:.:.:.:.:.:.:.:.:.:.:.:.:.:.:.:.:.:.:.:.:.:.:.:.:.:.:.:.:.:.:.:.:.:.Q Q s :.:.:.:.:.:.:.:.",
":.:.:.:.:.:.:.:.:.:.:.:.:.:.:.:.:.:.:.:.:.:.:.:.:.:.:.:.:.:.:.:.:.:.:.:.:.:.:.:.:.:.:.:.:.:.:.:.:.:.:.:.:.Q Q s :.:.:.:.:.:.:.:.",
":.:.:.:.:.:.:.:.:.:.:.:.:.:.:.:.:.:.:.:.:.:.:.:.:.:.:.:.:.:.:.:.:.:.:.:.:.:.:.:.:.:.:.:.:.:.:.:.:.:.:.:.:.Q Q s :.:.:.:.:.:.:.:.",
":.:.:.:.:.:.:.:.:.:.:.:.:.:.:.:.:.:.:.:.:.:.:.:.:.:.:.:.:.:.:.:.:.:.:.:.:.:.:.:.:.:.:.:.:.:.:.:.:.:.:.:.:.Q Q s :.:.:.:.:.:.:.:.",
":.:.:.:.:.:.:.:.:.:.:.:.:.:.:.:.:.:.:.:.:.:.:.:.:.:.:.:.:.:.:.:.:.:.:.:.:.:.:.:.:.:.:.:.:.:.:.:.:.:.:.:.:.Q Q s :.:.:.:.:.:.:.:.",
":.:.:.:.:.:.:.:.:.:.:.:.:.:.:.:.:.:.:.:.:.:.:.:.:.:.:.:.:.:.:.:.:.:.:.:.:.:.:.:.:.:.:.:.:.:.:.:.:.:.:.:.:.Q Q s :.:.:.:.:.:.:.:.",
":.:.:.:.:.:.:.:.:.:.:.:.:.:.:.:.:.:.:.:.:.:.:.:.:.:.:.:.:.:.:.:.:.:.:.:.:.:.:.:.:.:.:.:.:.:.:.:.:.:.:.:.:.Q Q s :.:.:.:.:.:.:.:.",
":.:.:.:.:.:.:.:.:.:.:.:.:.:.:.:.:.:.:.:.:.:.:.:.:.:.:.:.:.:.:.:.:.:.:.:.:.:.:.:.:.:.:.:.:.:.:.:.:.:.:.:.:.Q Q s :.:.:.:.:.:.:.:.",
":.:.:.:.:.:.:.:.:.:.:.:.:.:.:.:.:.:.:.:.:.:.:.:.:.:.:.:.:.:.:.:.:.:.:.:.:.:.:.:.:.:.:.:.:.:.:.:.:.:.:.:.:.Q Q s :.:.:.:.:.:.:.:.",
":.:.:.:.:.:.:.:.:.:.:.:.:.:.:.:.:.:.:.:.:.:.:.:.:.:.:.:.:.:.:.:.:.:.:.:.:.:.:.:.:.:.:.:.:.:.:.:.:.:.:.:.:.Q Q s :.:.:.:.:.:.:.:.",
":.:.:.:.:.:.:.:.:.:.:.:.:.:.:.:.:.:.:.:.:.:.:.:.:.:.:.:.:.:.:.:.:.:.:.:.:.:.:.J 5 5 D ;.:.:.:.:.:.:.:.:.:.Q Q s :.:.:.:.:.:.:.:.",
":.:.:.:.:.:.:.:.:.:.:.:.:.=.V ; : T :.:.:.:.:.:.:.:.:.:.:.:.:.:.:.:.:.:.:.:.B w n m r g :.:.#.$.:.:.:.:.:.Q Q s :.:.:.:.:.:.:.:.",
":.:.:.:.:.:.:.:.:.' H P O.Z z M n 2 ' :.:.:.:.:.:.:.:.:.:.:.:.:.:.:.:.X./ ` = M M M M 3 G < # 2 ; U :.:.:.Q Q s :.:.:.:.:.:.:.:.",
":.:.:.:.:.:.:.:.g 4 u y = @ M M M c % , 9 ' :.:.:.:.:.:.:.:.:.:.:.:.k 4 q 3 e M M M M r = b M M n 0 Z :.:.Q Q s :.:.:.:.:.:.:.:.",
":.:.:.:.:.:.:.J e M M M m i M M M m x M b - / G U =.:.:.:.#.S k H S y M M M M M M M M m m M M M M M 2 | :.Q Q s :.:.:.:.:.:.:.:.",
":.:.:.:.:.:.:.5 m M M M M M M M M M M M M e 2 i y 6 =.:.O.& u v y o n M M M M M M M M M M M M M M M i D :.Q Q s :.:.:.:.:.:.:.:.",
":.:.:.:.:.:.:.; M M M M M M M M M M M M M M M M M t T :.h c M M M M M M M M M M M M M M M M M M M M v N :.Q Q s :.:.:.:.:.:.:.:.",
":.:.) f s p > . o o o o o o o o o o o o o X o o o X O *   o o o o o o o o o o o o o o o o o o o o o X O * + + X * 1 s s j ..:.:.",
":.:.< *.:.:.:.:.:.:.:.:.:.:.:.:.:.:.:.:.:.:.:.:.:.:.:.:.:.:.:.:.:.:.:.:.:.:.:.:.:.:.:.:.:.:.:.:.:.:.:.:.:.:.:.:.:.:.:.:.] V :.:.",
":.;.d :.:.:.:.:.:.:.:.:.:.:.:.:.:.:.:.:.:.:.:.:.:.:.:.:.:.:.:.:.:.:.:.:.:.:.:.:.:.:.:.:.:.:.:.:.:.:.:.:.:.:.:.:.:.:.:.:.&.l :.:.",
":.;.a :.:.:.:.:.:.:.:.:.:.:.:.:.:.:.:.:.:.:.:.:.:.:.:.:.:.:.:.:.:.:.:.:.:.:.:.:.:.:.:.:.:.:.:.:.:.:.:.:.:.:.:.:.:.:.:.:.#.l :.:.",
":.:.f h B B B B B B B B B B B B B B B B B B B B B B B B B B B B B B B B B B B B B B B B B B B B B B B B B B B B B B B B 7 U :.:.",
":.:.;.| 1 / { { { { { { { { { { { { { { { { { { { { { { { { { { { { { { { { { { { { { { { { { { { { { { { { { { { { Z Z X.:.:.:.",
":.:.:.:.J ! :.:.:.:.:.:.:.:.:.:.:.:.:.:.:.:.:.:.:.:.:.:.:.:.:.:.:.:.:.:.:.:.:.:.:.:.:.:.:.:.:.:.:.:.:.:.:.:.:.:.:.:.h O.:.:.:.:.",
":.:.:.:. .l :.:.:.:.:.:.:.:.:.:.:.:.:.:.:.:.:.:.:.:.:.:.:.:.:.:.:.:.:.:.:.:.:.:.:.:.:.:.:.:.:.:.:.:.:.:.:.:.:.:.:.;.< :.:.:.:.:.",
":.:.:.:.:., :.:.:.:.:.:.:.:.:.:.:.:.:.:.:.:.:.:.:.:.:.:.:.:.:.:.:.:.:.:.:.:.:.:.:.:.:.:.:.:.:.:.:.:.:.:.:.:.:.:.:.] C :.:.:.:.:.",
":.:.:.:.:.B | :.:.:.:.:.:.:.:.:.:.:.:.:.:.:.:.:.:.:.:.:.:.:.:.:.:.:.:.:.:.:.:.:.:.:.:.:.:.:.:.:.:.:.:.:.:.:.:.:.:.A ` :.:.:.:.:.",
":.:.:.:.:.^ G :.:.:.:.:.:.:.:.:.:.:.:.:.:.:.:.:.:.:.:.:.:.:.:.:.:.:.:.:.:.:.:.:.:.:.:.:.:.:.:.:.:.:.:.:.:.:.:.:.:.1 ;.:.:.:.:.:.",
":.:.:.:.:.*.8 :.:.:.:.:.:.:.:.:.:.:.:.:.:.:.:.:.:.:.:.:.:.:.:.:.:.:.:.:.:.:.:.:.:.:.:.:.:.:.:.:.:.:.:.:.:.:.:.:.+.g :.:.:.:.:.:.",
":.:.:.:.:.:.a %.:.:.:.:.:.:.:.:.:.:.:.:.:.:.:.:.:.:.:.:.:.:.:.:.:.:.:.:.:.:.:.:.:.:.:.:.:.:.:.:.:.:.:.:.:.:.:.:.U U :.:.:.:.:.:.",
":.:.:.:.:.:.K W :.:.:.:.:.:.:.:.:.:.:.:.:.:.:.:.:.:.:.:.:.:.:.:.:.:.:.:.:.:.:.:.:.:.:.:.:.:.:.:.:.:.:.:.:.:.:.:.f @.:.:.:.:.:.:.",
":.:.:.:.:.:...k :.:.:.:.:.:.:.:.:.:.:.:.:.:.:.:.:.:.:.:.:.:.:.:.:.:.:.:.:.:.:.:.:.:.:.:.:.:.:.:.:.:.:.:.:.:.:.-.5 :.:.:.:.:.:.:.",
":.:.:.:.:.:.:.< :.:.:.:.:.:.:.:.:.:.:.:.:.:.:.:.:.:.:.:.:.:.:.:.:.:.:.:.:.:.:.:.:.:.:.:.:.:.:.:.:.:.:.:.:.:.:._ S :.:.:.:.:.:.:.",
":.:.:.:.:.:.:.V } :.:.:.:.:.:.:.:.:.:.:.:.:.:.:.:.:.:.:.:.:.:.:.:.:.:.:.:.:.:.:.:.:.:.:.:.:.:.:.:.:.:.:.:.:.:.C [ :.:.:.:.:.:.:.",
":.:.:.:.:.:.:.( D :.:.:.:.:.:.:.:.:.:.:.:.:.:.:.:.:.:.:.:.:.:.:.:.:.:.:.:.:.:.:.:.:.:.:.:.:.:.:.:.:.:.:.:.:.:.< ;.:.:.:.:.:.:.:.",
":.:.:.:.:.:.:.=.5 :.:.:.:.:.:.:.:.:.:.:.:.:.:.:.:.:.:.:.:.:.:.:.:.:.:.:.:.:.:.:.:.:.:.:.:.:.:.:.:.:.:.:.:.:.X.h :.:.:.:.:.:.:.:.",
":.:.:.:.:.:.:.:.d #.:.:.:.:.:.:.:.:.:.:.:.:.:.:.:.:.:.:.:.:.:.:.:.:.:.:.:.:.:.:.:.:.:.:.:.:.:.:.:.:.:.:.:.:.L E :.:.:.:.:.:.:.:.",
":.:.:.:.:.:.:.:.P R :.:.:.:.:.:.:.:.:.:.:.:.:.:.:.:.:.:.:.:.:.:.:.:.:.:.:.:.:.:.:.:.:.:.:.:.:.:.:.:.:.:.:.:.s #.:.:.:.:.:.:.:.:.",
":.:.:.:.:.:.:.:.o.h :.:.:.:.:.:.:.:.:.:.:.:.:.:.:.:.:.:.:.:.:.:.:.:.:.:.:.:.:.:.:.:.:.:.:.:.:.:.:.:.:.:.:.=.7 :.:.:.:.:.:.:.:.:.",
":.:.:.:.:.:.:.:.:.1 -.:.:.:.:.:.:.:.:.:.:.:.:.:.:.:.:.:.:.:.:.:.:.:.:.:.:.:.:.:.:.:.:.:.:.:.:.:.:.:.:.:.:.^ F :.:.:.:.:.:.:.:.:.",
":.:.:.:.:.:.:.:.:.K Y :.:.:.:.:.:.:.:.:.:.:.:.:.:.:.:.:.:.:.:.:.:.:.:.:.:.:.:.:.:.:.:.:.:.:.:.:.:.:.:.:.:.a +.:.:.:.:.:.:.:.:.:.",
":.:.:.:.:.:.:.:.:.&.< ..:.:.:.:.:.:.:.:.:.:.:.:.:.:.:.:.:.:.:.:.:.:.:.:.:.:.:.:.:.:.:.:.:.:.:.:.:.:.:.:.I l :.:.:.:.:.:.:.:.:.:.",
":.:.:.:.:.:.:.:.:.:...< g G J J J J J J J J J J J J J J J J J J J J J J J J J J J J J J J J J J J J F d l ;.:.:.:.:.:.:.:.:.:.:.",
":.:.:.:.:.:.:.:.:.:.:.:. .! Z 5 K $ C K Y Q Q Q Q Q Q Q Q Q Q Q Q Q Q Q Q Q Q Q Q Q Q P J d 5 U $ E / @.:.:.:.:.:.:.:.:.:.:.:.:.",
":.:.:.:.:.:.:.:.:.:.:.:.:.:.8 O.f ' :.:.:.:.:.:.:.:.:.:.:.:.:.:.:.:.:.:.:.:.:.:.:.:.:.:.:.:.V E P J :.:.:.:.:.:.:.:.:.:.:.:.:.:.",
":.:.:.:.:.:.:.:.:.:.:.:.:.K G Q C :.:.:.:.:.:.:.:.:.:.:.:.:.:.:.:.:.:.:.:.:.:.:.:.:.:.:.:.:.=.< #.8 X.:.:.:.:.:.:.:.:.:.:.:.:.:.",
":.:.:.:.:.:.:.:.:.$.+.} J d #., *.:.:.:.:.:.:.:.:.:.:.:.:.:.:.:.:.:.:.:.:.:.:.:.:.:.:.:.:.:.:.( k X., ^ | @.*.:.:.:.:.:.:.:.:.:.",
":.:.:.:.:.:.:.:.` 9 B V E +.9 ] :.:.:.:.:.:.:.:.:.:.:.:.:.:.:.:.:.:.:.:.:.:.:.:.:.:.:.:.:.:.:.:.Z C @.J B B % *.:.:.:.:.:.:.:.:.",
":.:.:.:.:.:.:.:.P N Q J h 5 | :.:.:.:.:.:.:.:.:.:.:.:.:.:.:.:.:.:.:.:.:.:.:.:.:.:.:.:.:.:.:.:.:.:.P 5 Z I Q 5 $.:.:.:.:.:.:.:.:.",
":.:.:.:.:.:.:.:.=.E I ! X.:.:.:.:.:.:.:.:.:.:.:.:.:.:.:.:.:.:.:.:.:.:.:.:.:.:.:.:.:.:.:.:.:.:.:.:.:.;.] Q K ] :.:.:.:.:.:.:.:.:."
};
